<?xml version="1.0" standalone="no"?>
<!DOCTYPE svg PUBLIC "-//W3C//DTD SVG 20010904//EN"
 "http://www.w3.org/TR/2001/REC-SVG-20010904/DTD/svg10.dtd">
<svg version="1.0" xmlns="http://www.w3.org/2000/svg"
 width="1754.000000pt" height="730.000000pt" viewBox="0 0 1754.000000 730.000000"
 preserveAspectRatio="xMidYMid meet">

<g transform="translate(0.000000,730.000000) scale(0.100000,-0.100000)"
fill="#000000" stroke="none">
<path d="M10 6350 c0 -517 3 -940 8 -940 4 0 19 10 32 23 60 53 117 85 165 91
28 4 80 21 117 38 58 27 74 30 120 24 62 -8 57 -7 130 -3 48 3 61 8 85 33 21
23 43 34 88 42 37 8 67 20 78 32 9 11 25 20 35 20 10 0 27 7 38 15 10 8 27 15
36 15 25 0 49 39 38 61 -15 28 -12 69 5 69 8 0 15 -6 15 -13 0 -8 9 -22 20
-32 16 -14 29 -16 67 -11 25 3 49 9 52 12 3 3 4 39 3 80 -2 61 1 76 14 81 9 3
20 0 24 -7 4 -7 12 -10 18 -6 6 3 13 -3 17 -14 3 -11 13 -20 21 -20 18 0 18
-24 -2 -61 -19 -38 -12 -59 21 -59 25 0 34 -14 15 -25 -13 -8 -13 -25 0 -25 6
0 15 12 20 26 9 22 13 24 25 14 21 -17 19 -25 -10 -40 -14 -7 -25 -19 -25 -26
0 -7 -19 -19 -43 -25 -23 -7 -35 -14 -25 -16 14 -4 13 -7 -7 -29 -29 -31 -45
-31 -45 1 0 19 -5 25 -21 25 -16 0 -20 -5 -16 -20 6 -23 -3 -26 -22 -7 -10 10
-15 8 -27 -7 -8 -11 -14 -27 -14 -37 0 -10 -17 -25 -44 -38 -42 -19 -47 -19
-81 -5 -20 8 -40 12 -45 9 -12 -8 -13 -78 -1 -91 19 -20 22 -52 6 -68 -9 -9
-17 -30 -17 -47 l-1 -31 -18 23 c-10 13 -19 30 -19 37 0 19 -85 102 -104 102
-9 0 -16 4 -16 9 0 11 -39 26 -57 23 -6 -2 -14 2 -18 8 -14 22 -95 9 -95 -16
0 -21 -32 -34 -54 -22 -24 13 -130 5 -150 -11 -12 -11 -14 -17 -5 -27 8 -10 8
-14 0 -14 -20 0 -12 -56 12 -78 13 -12 28 -22 34 -22 6 0 30 -23 52 -51 33
-42 41 -59 41 -93 l-1 -41 -17 24 c-16 22 -36 43 -88 92 -12 12 -28 19 -37 17
-9 -2 -30 13 -47 32 l-31 35 6 -44 c3 -27 17 -59 35 -81 31 -39 37 -73 20
-100 -8 -12 -15 -8 -40 22 -17 20 -36 35 -43 32 -8 -2 -19 6 -26 20 -7 13 -24
29 -36 34 -13 6 -26 20 -30 31 -7 22 -25 29 -25 10 0 -6 17 -40 37 -75 21 -36
45 -78 54 -95 10 -16 24 -40 33 -52 43 -59 76 -113 76 -124 0 -7 5 -13 10 -13
6 0 10 -5 10 -11 0 -6 11 -25 26 -41 32 -38 69 -113 79 -156 8 -40 -3 -114
-17 -110 -6 2 -23 27 -38 55 -23 42 -29 48 -33 32 -8 -30 -40 -6 -59 45 -11
29 -21 41 -33 39 -26 -2 -45 21 -45 55 0 63 -25 81 -54 40 -12 -17 -18 -20
-28 -10 -21 21 -37 13 -43 -20 -8 -47 36 -154 63 -151 25 3 47 -49 66 -161 14
-86 14 -90 -5 -118 -11 -15 -25 -28 -30 -28 -5 0 -9 -7 -9 -15 0 -29 -39 -92
-60 -98 -15 -4 -20 -13 -20 -38 0 -22 -9 -42 -26 -60 -24 -25 -26 -31 -15 -57
9 -20 22 -32 41 -36 23 -4 34 -16 50 -51 12 -26 19 -54 17 -63 -4 -13 -5 -12
-6 4 -1 21 -4 22 -56 27 -27 2 -31 -1 -36 -33 -4 -19 -7 -29 -8 -22 0 7 -6 19
-13 26 -10 11 -15 11 -25 0 -15 -15 -18 -68 -3 -59 5 3 10 1 10 -5 0 -6 4 -8
10 -5 5 3 10 1 10 -6 0 -7 9 -3 20 9 21 22 48 20 63 -5 12 -20 29 -5 22 20 -5
18 -4 19 4 7 8 -11 13 -12 19 -3 9 15 32 -2 51 -39 13 -26 33 -29 30 -5 -1 7
-1 23 0 36 l1 25 31 -32 c37 -38 49 -40 49 -9 0 19 5 23 23 21 12 -1 25 -3 30
-3 4 -1 7 -9 7 -18 0 -14 5 -12 23 10 21 26 25 28 50 16 22 -10 26 -16 20 -38
-7 -27 -29 -50 -50 -51 -7 0 -15 -11 -19 -25 -3 -14 -11 -26 -18 -27 -6 0 -16
-2 -22 -2 -5 -1 -24 -17 -41 -36 -29 -33 -31 -33 -37 -12 -10 29 -26 28 -26
-2 0 -13 -7 -29 -15 -36 -8 -7 -15 -9 -15 -4 0 5 -10 -7 -21 -26 -12 -19 -42
-56 -66 -81 -92 -94 -130 -171 -98 -195 16 -12 22 -9 52 21 18 19 33 40 33 48
0 8 7 21 16 28 15 12 19 11 32 -9 8 -12 21 -22 28 -22 23 0 16 -20 -11 -32
-13 -6 -27 -19 -30 -29 -3 -10 -21 -23 -40 -29 -30 -10 -33 -14 -25 -30 16
-30 12 -57 -16 -89 -14 -17 -21 -31 -15 -31 5 0 13 5 17 11 3 6 25 20 48 31
68 33 101 52 124 73 80 73 155 153 163 172 5 13 15 23 24 23 8 0 15 9 15 20 0
12 12 32 26 45 14 13 23 28 20 34 -9 14 4 41 20 41 19 0 14 -37 -9 -70 -9 -13
-17 -30 -17 -37 0 -7 -9 -17 -20 -23 -11 -6 -20 -19 -20 -29 0 -10 -9 -26 -20
-36 -11 -10 -20 -23 -20 -30 0 -18 -64 -85 -82 -85 -9 0 -37 -24 -63 -52 -46
-53 -84 -83 -118 -95 -13 -4 -17 -13 -14 -29 2 -13 0 -21 -4 -18 -5 3 -9 12
-9 20 0 24 -27 16 -32 -10 -6 -30 2 -86 12 -86 4 0 10 9 13 20 3 13 11 18 20
14 18 -7 49 -78 36 -82 -5 -2 -9 -28 -9 -58 0 -57 -9 -65 -42 -40 -14 10 -18
28 -18 71 0 54 -13 72 -15 22 -4 -82 -3 -80 -32 -73 -16 4 -37 8 -48 9 -20 2
-20 -5 -23 -744 l-2 -745 65 -14 c50 -10 65 -18 63 -29 -3 -12 -17 -16 -66
-16 l-62 0 0 -82 c0 -76 1 -82 20 -78 13 3 20 -2 21 -13 0 -10 3 -12 6 -4 6
16 83 15 160 -3 71 -17 113 -23 204 -31 l66 -7 8 98 c4 53 10 93 15 88 4 -4 5
-48 1 -96 -7 -100 -15 -91 91 -102 l58 -6 2 -57 c5 -128 3 -252 -4 -252 -5 0
-8 11 -8 24 0 19 -7 25 -38 32 -20 4 -43 8 -49 7 -7 0 -10 4 -7 9 3 5 -3 8
-13 6 -29 -5 -53 20 -54 56 -1 19 -3 24 -6 11 -9 -43 -25 -64 -42 -55 -20 11
-178 50 -203 50 -10 0 -18 5 -18 10 0 6 5 10 10 10 15 0 12 32 -5 66 -17 34
-97 94 -125 94 -14 0 -20 7 -21 23 -1 22 -1 22 -8 -2 -6 -23 -38 -43 -53 -34
-5 2 -8 -217 -8 -487 0 -325 3 -489 10 -485 6 4 10 -7 9 -27 -1 -31 -1 -32 -9
-8 -6 16 -8 -12 -7 -77 2 -75 6 -104 15 -108 24 -9 246 6 260 17 15 13 83 12
92 -1 8 -12 10 -12 390 -15 195 -1 329 -1 298 1 -32 2 -58 8 -58 13 0 5 -10
10 -22 13 -21 3 -21 4 -4 12 12 5 21 3 26 -6 5 -8 34 -15 74 -17 36 -2 63 -8
60 -13 -3 -5 1216 -9 2893 -8 1594 1 2889 3 2878 6 -11 2 -58 17 -105 33 -47
16 -107 32 -135 36 -27 4 -61 11 -75 16 -14 5 -70 16 -126 23 -96 12 -194 45
-194 64 0 12 26 21 58 21 14 0 52 5 84 12 50 10 59 16 68 42 6 17 8 55 4 88
-8 74 8 101 68 116 42 10 59 10 144 -3 25 -3 91 2 160 14 111 19 178 35 394
95 47 13 114 32 150 41 36 10 88 28 115 40 49 23 53 23 260 14 116 -4 381 -12
590 -16 354 -7 375 -8 301 -20 -76 -12 -82 -14 -133 -65 -29 -29 -53 -57 -53
-63 0 -7 79 -11 245 -12 176 0 245 3 244 11 0 11 -92 76 -107 76 -5 0 -24 16
-43 35 -19 19 -42 35 -51 35 -10 0 -18 4 -18 8 0 5 140 9 310 9 177 1 316 5
323 11 7 5 46 21 87 37 41 15 134 49 205 77 72 27 155 59 185 70 30 11 64 24
75 29 51 22 305 118 350 132 28 9 66 17 85 19 19 1 41 6 47 11 7 5 22 7 33 4
10 -3 24 1 30 8 12 15 99 17 116 4 6 -5 31 -5 55 -1 42 8 89 5 309 -18 158
-17 366 -13 451 9 70 17 242 80 282 102 11 6 21 8 24 6 3 -3 -6 -11 -19 -18
-12 -8 -32 -19 -43 -26 -11 -7 -29 -16 -40 -22 -12 -5 -27 -16 -34 -25 -7 -9
-18 -16 -24 -16 -5 0 -39 -16 -75 -36 -81 -46 -72 -62 23 -39 101 26 308 20
327 -9 7 -10 278 -18 278 -8 0 12 -38 31 -62 32 -44 0 -51 26 -43 169 4 69 11
133 15 141 5 8 11 40 15 70 4 30 12 70 18 90 l12 35 83 5 c45 3 82 2 82 -2 0
-5 5 -8 11 -8 8 0 7 5 -1 16 -11 12 -10 18 4 32 16 16 17 16 22 -6 4 -12 9
-22 13 -23 3 0 16 -2 27 -5 12 -2 26 2 32 9 8 10 32 192 32 245 0 8 6 12 13 9
8 -3 43 -2 78 3 42 5 71 4 84 -4 11 -6 27 -11 35 -12 8 -1 23 -2 33 -3 10 0
17 -9 17 -22 0 -19 -5 -20 -72 -17 -45 2 -72 -1 -72 -7 1 -5 5 -20 8 -31 4
-14 1 -28 -9 -37 -11 -12 -15 -38 -15 -109 0 -255 -14 -530 -27 -543 -7 -8
-13 -20 -13 -28 0 -8 -9 -22 -21 -32 -16 -15 -19 -26 -14 -56 10 -59 -32 -65
-55 -8 -15 34 -16 35 -55 9 -23 -16 -45 -20 -100 -20 -93 2 -90 2 -73 -17 8
-10 18 -26 21 -36 4 -9 18 -22 32 -27 15 -6 25 -17 25 -29 0 -11 5 -23 10 -26
7 -4 9 2 4 19 -5 21 -2 26 21 32 14 4 38 1 52 -5 16 -8 28 -8 32 -2 10 15 81
25 81 11 0 -10 3 -10 15 0 11 10 24 9 59 -3 24 -8 47 -13 49 -10 3 2 1 18 -3
34 -14 47 13 48 61 3 123 -117 130 -125 127 -152 -3 -31 14 -28 -223 -32 -83
-1 -156 0 -164 2 -9 2 -15 -9 -18 -32 -4 -32 -3 -265 0 -349 2 -38 -17 -54
-26 -21 -7 25 -21 26 -47 0 -11 -11 -26 -19 -32 -17 -8 1 -13 -8 -13 -22 0
-13 -6 -26 -12 -28 -7 -3 -13 4 -13 14 -1 17 -1 17 -11 0 -18 -31 -68 -46
-119 -37 -25 5 -52 8 -60 8 -45 -3 -50 2 -50 41 0 22 4 42 9 45 5 3 12 27 16
52 4 26 18 71 32 101 22 46 25 63 20 111 -4 31 -11 73 -17 93 -14 49 -60 99
-93 99 -14 0 -30 7 -34 15 -5 8 -22 16 -39 18 -16 2 -42 11 -56 21 -14 9 -32
14 -40 11 -9 -4 -18 1 -22 10 -3 9 -10 13 -16 10 -13 -8 -185 -9 -198 -1 -22
13 -44 -21 -46 -70 0 -27 -6 -54 -12 -61 -6 -6 -14 -30 -18 -52 -3 -22 -14
-45 -24 -51 -14 -9 -11 -10 13 -4 39 9 77 6 89 -6 12 -12 8 -108 -6 -135 -6
-11 -17 -24 -25 -28 -7 -5 -11 -12 -8 -18 4 -5 -10 -9 -30 -9 -19 0 -43 -4
-53 -10 -26 -15 -74 -33 -102 -37 -14 -2 -40 -13 -58 -24 -34 -20 -67 -25 -75
-11 -3 4 -11 41 -18 83 -11 69 -11 79 4 94 21 20 21 20 0 40 -14 15 -15 23 -4
68 22 87 40 140 71 198 17 31 30 66 30 78 0 12 4 21 9 21 5 0 19 16 32 35 13
19 31 35 38 35 11 0 12 3 3 12 -8 8 -15 8 -24 1 -7 -6 -26 -12 -43 -14 -16 -2
-39 -9 -50 -16 -11 -7 -27 -13 -37 -13 -10 0 -18 -3 -18 -8 0 -4 -17 -16 -37
-26 -21 -10 -47 -23 -57 -28 -11 -6 -48 -10 -83 -9 -35 0 -63 -4 -63 -9 0 -13
-35 -13 -58 -1 -9 6 -55 14 -102 19 -82 8 -83 9 -42 17 46 8 57 25 17 25 -14
0 -25 5 -25 10 0 6 11 10 25 10 34 0 32 18 -2 23 l-28 4 28 2 c15 0 27 6 27
11 0 15 -78 12 -83 -2 -3 -10 -9 -8 -24 4 -24 22 -53 23 -53 3 0 -11 -11 -15
-37 -16 -49 -1 -183 -9 -207 -12 -12 -1 -24 7 -31 20 l-11 22 -19 -22 c-11
-12 -19 -37 -19 -54 0 -18 -3 -33 -7 -33 -4 0 -10 -9 -14 -20 -9 -27 19 -71
63 -100 37 -25 61 -49 62 -61 0 -9 -76 -39 -98 -39 -9 0 -64 -15 -122 -34
-177 -56 -138 -77 140 -75 250 2 334 -2 355 -15 16 -11 21 -26 23 -82 2 -38 8
-73 13 -79 16 -16 11 -83 -7 -93 -11 -6 -15 -17 -11 -31 5 -20 2 -21 -94 -21
-109 0 -113 3 -84 60 12 23 13 30 3 30 -7 -1 -22 -20 -33 -43 -19 -39 -23 -42
-66 -45 -44 -3 -47 -2 -52 28 -9 41 -41 41 -56 0 -11 -32 -29 -38 -50 -17 -10
10 -14 9 -21 -4 -7 -12 -21 -15 -52 -14 -24 2 -133 0 -243 -5 -110 -4 -202 -6
-205 -3 -2 2 2 9 10 14 12 9 11 9 -5 4 -41 -14 -186 -22 -345 -18 -200 5 -231
9 -223 28 8 23 -24 18 -40 -5 -14 -21 -21 -21 -603 -20 -330 1 -618 6 -654 11
-44 7 -66 7 -68 0 -9 -27 -144 -101 -184 -101 -10 0 -29 -7 -41 -15 -17 -11
-32 -12 -62 -5 -64 15 -105 11 -175 -15 l-65 -24 3308 0 3307 -1 0 21 c0 11 5
17 10 14 6 -4 70 -6 142 -6 88 0 137 -4 147 -12 10 -9 145 -13 515 -14 337 -2
494 1 481 7 -17 9 -16 9 5 3 14 -4 557 -9 1207 -10 l1183 -3 0 205 0 205 -87
2 c-49 1 -99 1 -113 1 -14 -1 -156 -3 -317 -5 l-291 -3 -26 24 c-14 14 -26 31
-26 38 0 8 -7 16 -15 19 -22 9 -18 24 6 24 11 0 17 -4 14 -10 -3 -5 0 -10 8
-10 7 0 13 -9 13 -21 -1 -12 5 -24 12 -27 10 -3 13 3 10 19 -1 13 4 32 12 42
18 21 50 23 50 2 0 -8 5 -15 10 -15 6 0 10 9 10 20 0 18 3 19 21 9 18 -9 24
-8 31 5 6 11 23 16 58 16 43 0 50 -3 50 -20 0 -24 26 -17 33 9 4 16 15 18 88
16 52 -2 89 1 98 8 7 6 28 10 45 9 24 -2 28 0 16 7 -13 9 -12 11 5 11 12 0 26
5 33 12 9 9 17 7 36 -11 29 -27 84 -36 160 -27 l56 7 -2 1337 -3 1337 -67 0
c-37 1 -73 6 -79 12 -6 6 -12 70 -15 154 -2 79 -6 188 -9 241 l-4 98 30 15
c16 9 34 13 39 10 5 -3 32 -3 60 1 49 6 50 7 50 40 l0 34 -105 0 c-90 0 -106
2 -114 18 -10 18 -25 195 -36 422 -8 152 -2 164 71 165 193 5 184 4 184 25 0
19 -5 20 -119 13 l-119 -6 -17 27 c-11 17 -21 61 -27 114 -36 355 -37 444 -7
463 7 5 48 9 90 9 42 0 104 3 138 6 l61 7 -1 86 c0 84 -1 85 -13 46 -7 -22
-20 -55 -30 -72 l-17 -33 -118 0 c-133 0 -141 4 -159 75 -16 63 -36 316 -28
355 3 19 6 49 6 65 -1 61 8 64 192 67 l168 3 0 793 0 792 -4653 0 c-2560 0
-4723 -3 -4807 -7 -89 -3 -146 -10 -135 -14 13 -5 1 -8 -35 -8 -30 0 -64 4
-75 9 -15 7 -9 8 20 5 32 -4 35 -3 15 4 -14 5 -1718 9 -3937 10 l-3913 1 0
-940z m14259 697 c9 -11 22 -25 30 -31 7 -6 28 -26 46 -43 28 -30 37 -33 88
-33 42 0 66 -6 92 -22 19 -13 35 -27 35 -31 0 -5 13 -27 29 -50 15 -23 32 -53
36 -67 4 -14 22 -41 41 -60 22 -24 45 -68 69 -135 20 -55 45 -124 56 -152 10
-29 19 -61 19 -72 0 -10 13 -72 30 -137 16 -66 30 -126 30 -135 0 -36 -27 -41
-322 -60 -339 -21 -432 -23 -459 -8 -17 8 -109 139 -109 154 0 3 -19 35 -41
72 -61 99 -199 372 -199 393 0 9 6 23 14 29 8 7 17 24 21 39 3 15 16 35 28 44
17 13 19 20 10 29 -15 15 10 77 45 105 21 17 37 20 93 19 37 -2 72 -6 78 -9 6
-4 11 -2 11 3 0 6 6 11 14 11 25 0 36 93 15 132 -17 31 3 38 100 36 70 -1 87
-5 100 -21z m-4313 -318 c44 -23 76 -47 93 -71 14 -21 34 -37 45 -38 31 0 105
-43 292 -168 145 -97 188 -131 222 -177 23 -31 42 -65 42 -77 0 -16 5 -19 22
-14 17 4 29 -2 45 -20 12 -14 32 -27 45 -29 84 -12 108 -31 90 -70 -8 -16 -10
-46 -6 -79 6 -46 3 -55 -17 -78 -24 -25 -28 -26 -279 -42 -140 -9 -271 -16
-290 -16 -35 0 -141 49 -355 165 -49 26 -115 61 -145 77 -174 93 -335 186
-361 208 l-30 25 26 83 c15 45 30 82 34 82 3 0 12 13 19 29 19 42 53 60 133
71 39 4 76 13 82 19 5 5 10 38 11 73 l2 63 68 10 c103 15 138 10 212 -26z
m-3702 -313 c17 7 163 -47 401 -146 94 -39 193 -79 220 -90 28 -10 121 -47
208 -83 191 -79 251 -124 254 -193 l2 -42 -62 4 c-34 3 -82 6 -106 8 -38 3
-52 -1 -100 -34 -31 -21 -68 -44 -83 -51 -16 -7 -28 -16 -28 -21 0 -4 -6 -8
-14 -8 -14 0 -76 -64 -76 -78 0 -4 -14 -13 -30 -21 -27 -11 -37 -11 -83 7 -29
12 -162 60 -297 107 -135 47 -261 92 -280 100 -19 8 -73 27 -120 44 -96 33
-229 87 -238 96 -13 13 -3 78 23 143 29 73 59 102 110 102 14 0 39 7 55 15 27
14 30 20 30 63 0 69 13 81 90 84 36 2 75 0 87 -4 13 -4 29 -5 37 -2z m1240
-587 c5 -5 7 -11 3 -15 -7 -8 -67 18 -67 29 0 9 51 -2 64 -14z m9564 -136 c15
-11 29 -33 33 -49 3 -16 11 -39 17 -50 18 -33 47 -400 34 -429 -10 -20 -19
-23 -99 -29 -48 -3 -243 -8 -433 -11 -337 -5 -467 -9 -700 -21 -153 -8 -157
-5 -177 132 -15 105 -21 354 -9 391 4 13 17 25 29 27 86 17 272 35 317 30 30
-3 150 0 265 7 540 32 683 32 723 2z m-6058 -42 c0 -5 -9 -11 -20 -14 -20 -5
-26 3 -13 16 9 10 33 8 33 -2z m-2380 -61 c34 -1 -37 -40 -75 -41 -30 -2 -33
-3 -12 -6 15 -2 27 -7 27 -11 -1 -12 -30 -46 -31 -36 0 5 -4 0 -8 -11 -10 -25
-5 -35 18 -35 12 0 20 10 24 29 5 24 11 29 28 26 26 -5 49 -23 49 -39 0 -7
-28 -18 -62 -25 -86 -18 -88 -18 -95 -38 -3 -10 -17 -30 -31 -45 -15 -17 -26
-43 -29 -70 l-5 -43 33 31 c71 64 119 81 177 63 44 -14 40 -31 -13 -53 -25
-10 -53 -28 -63 -40 -9 -12 -34 -34 -54 -50 -41 -31 -58 -79 -39 -113 7 -15 6
-25 -4 -40 -8 -11 -14 -35 -13 -54 0 -38 24 -83 38 -74 6 4 10 1 10 -4 0 -6 9
-11 19 -11 10 0 21 -7 25 -15 3 -8 23 -18 46 -21 30 -5 40 -11 40 -25 0 -11 3
-19 8 -19 13 0 33 -57 37 -104 2 -24 8 -53 14 -65 6 -11 11 -31 11 -45 0 -14
5 -26 11 -26 8 0 9 19 4 64 -4 42 -3 66 4 71 6 3 11 2 11 -4 0 -5 8 -12 19
-16 16 -5 17 -11 9 -53 -13 -65 -12 -226 1 -250 6 -12 11 -29 11 -38 0 -16 -1
-16 -15 2 -13 18 -14 18 -15 1 0 -10 -4 -16 -8 -13 -11 6 -62 -73 -62 -96 0
-38 -22 -68 -51 -68 -15 0 -29 7 -33 15 -3 8 -16 15 -30 15 -27 0 -42 15 -26
25 5 3 10 16 10 27 0 12 -3 18 -7 15 -12 -12 -33 15 -33 43 0 38 -9 60 -25 60
-8 0 -16 9 -20 19 -10 33 -44 33 -64 0 -14 -23 -20 -26 -24 -15 -3 9 -2 18 4
21 5 4 3 12 -6 21 -9 10 -12 25 -9 43 5 24 3 29 -12 28 -13 -2 -20 6 -22 23
-4 29 -29 60 -48 60 -7 0 -19 -10 -25 -22 -11 -21 -12 -21 -25 -3 -12 16 -12
20 1 28 23 12 18 23 -15 37 -16 7 -30 19 -30 26 0 18 10 18 24 -2 9 -12 17
-13 39 -5 23 9 27 16 27 48 0 21 4 55 9 75 6 27 5 40 -4 48 -19 16 -45 0 -52
-31 -3 -16 -10 -32 -14 -35 -5 -3 -9 -15 -10 -27 0 -21 -1 -21 -8 -2 -5 11 -4
28 0 37 5 10 12 49 15 87 4 63 3 71 -18 85 -12 9 -19 18 -16 22 10 10 41 -4
78 -36 19 -16 36 -27 39 -24 3 3 -1 9 -8 14 -11 6 -13 30 -8 116 5 97 10 115
41 178 41 84 57 126 97 261 26 85 36 106 71 139 34 34 43 38 59 28 25 -16 30
-15 22 5 -5 12 3 8 22 -10 17 -15 37 -27 45 -27z m2268 22 c2 -7 -3 -12 -12
-12 -9 0 -16 7 -16 16 0 17 22 14 28 -4z m-4068 4 c0 -3 -4 -8 -10 -11 -5 -3
-10 -1 -10 4 0 6 5 11 10 11 6 0 10 -2 10 -4z m6525 -46 c17 -33 20 -101 5
-116 -6 -6 -13 -33 -17 -61 -4 -38 -2 -57 11 -74 9 -13 16 -18 16 -11 0 8 7
20 15 28 8 9 15 26 15 38 0 25 42 76 78 95 21 11 24 10 29 -8 3 -12 10 -21 17
-21 25 -1 -30 -30 -57 -30 -24 0 -28 -3 -24 -19 2 -11 1 -41 -4 -67 -6 -31 -5
-51 2 -60 7 -8 7 -19 1 -31 -12 -22 -19 -214 -9 -230 9 -14 -2 -45 -14 -37 -5
3 -9 14 -9 25 0 12 -5 19 -12 17 -28 -10 -10 -60 41 -118 35 -40 38 -56 13
-79 -29 -27 -122 -142 -122 -152 0 -15 23 -10 50 11 30 23 54 26 46 5 -6 -15
3 -18 57 -17 24 1 27 -3 27 -33 0 -19 -5 -37 -10 -40 -19 -12 -57 -100 -55
-130 1 -17 -6 -38 -17 -49 -10 -11 -17 -25 -15 -31 7 -19 32 -15 42 7 6 12 21
28 35 35 13 7 29 18 35 26 5 7 33 31 60 52 80 61 99 78 115 109 12 23 12 30 3
33 -7 3 -13 11 -13 19 0 11 12 15 43 14 23 0 59 3 80 6 24 4 37 2 37 -5 0 -6
-9 -11 -19 -11 -12 0 -23 -11 -30 -30 -5 -16 -15 -30 -22 -30 -7 0 -9 -8 -6
-21 4 -15 -1 -22 -18 -29 -26 -10 -45 -38 -45 -69 0 -12 -9 -22 -22 -27 -37
-11 -52 -26 -36 -35 9 -6 4 -9 -14 -9 -16 0 -28 -5 -28 -11 0 -5 -8 -9 -17 -8
-40 4 -63 -2 -63 -15 0 -8 -12 -17 -27 -21 -25 -6 -26 -8 -9 -14 14 -5 16 -10
8 -15 -7 -4 -16 -5 -21 -1 -5 3 -12 1 -15 -4 -4 -5 -2 -12 4 -16 17 -11 11
-23 -15 -29 -13 -3 -51 -34 -84 -67 -48 -49 -59 -68 -59 -92 1 -17 -4 -33 -10
-35 -7 -2 -12 -8 -12 -13 0 -5 -11 -27 -25 -48 -13 -22 -27 -51 -31 -65 -5
-23 -12 -26 -75 -32 -68 -6 -69 -7 -69 -35 0 -33 0 -33 -35 -17 -21 9 -28 9
-35 -1 -6 -10 -12 -7 -25 12 -13 21 -17 55 -19 179 -2 84 -8 164 -13 178 -6
14 -28 46 -48 70 l-38 45 7 -43 c6 -43 23 -81 41 -94 6 -5 5 -11 -4 -17 -12
-8 -13 -14 -3 -36 15 -32 16 -72 2 -80 -6 -3 -13 1 -16 9 -8 20 -34 21 -34 1
0 -8 5 -15 10 -15 6 0 10 -7 10 -15 0 -12 -7 -14 -27 -9 -16 4 -34 11 -40 17
-20 15 -16 -23 7 -66 26 -48 25 -51 -9 -44 -28 6 -31 3 -47 -40 -10 -26 -17
-55 -17 -65 1 -12 -8 -23 -24 -29 l-26 -10 36 -19 c20 -11 45 -20 54 -20 15 0
13 -5 -9 -23 -50 -42 -98 -124 -103 -175 -2 -26 -11 -61 -20 -79 -13 -25 -14
-40 -6 -68 9 -33 7 -39 -11 -36 -18 3 -6 -17 16 -27 18 -8 27 -7 39 6 10 9 44
19 86 23 45 5 89 18 130 38 70 36 87 38 96 12 7 -23 39 -61 52 -61 5 0 20 12
34 26 13 14 39 32 57 39 18 8 35 21 38 30 3 8 16 15 29 15 23 0 53 -26 42 -37
-4 -3 -1 -15 5 -26 16 -31 11 -127 -9 -149 -15 -16 -18 -17 -33 -3 -20 18 -66
6 -76 -19 -3 -9 -14 -18 -24 -21 -10 -3 -21 -18 -24 -33 -4 -15 -20 -38 -36
-52 -32 -27 -44 -81 -29 -132 4 -14 5 -28 3 -31 -6 -6 -69 53 -69 64 0 11 -6
12 -27 4 -19 -7 -43 -59 -34 -74 6 -9 -9 -23 -29 -27 -5 -2 -25 -6 -42 -9 -26
-6 -33 -4 -33 7 0 49 -86 58 -110 13 -9 -17 -24 -25 -54 -28 -37 -5 -89 -16
-157 -32 -21 -6 -27 -3 -32 15 -3 12 -15 24 -26 27 -34 9 -38 43 -7 66 27 20
35 46 14 49 -7 1 -24 2 -38 2 l-25 1 -7 135 c-4 74 -10 185 -13 246 -6 96 -5
113 10 127 9 9 26 17 38 17 25 0 86 34 105 58 27 35 15 42 -67 42 -59 0 -80 4
-84 14 -3 8 -11 61 -17 118 -17 157 -36 232 -85 330 -25 50 -45 96 -45 103 0
20 25 25 143 26 62 1 162 4 222 8 108 6 110 6 110 30 l0 25 -145 -3 c-80 -1
-197 -6 -260 -11 l-115 -8 -60 62 c-33 33 -73 68 -90 76 -16 8 -67 36 -113 62
-46 27 -87 48 -90 48 -4 0 -23 8 -42 19 -19 10 -52 24 -73 31 -21 6 -53 24
-70 39 -18 15 -54 40 -82 56 -68 39 -95 65 -95 95 0 57 -12 55 330 70 724 33
870 40 910 44 25 2 52 0 62 -5 24 -13 37 -63 39 -154 3 -94 6 -106 24 -99 11
5 13 31 12 121 -2 100 0 116 16 128 17 12 69 17 349 31 112 6 127 8 131 25 3
11 2 20 -1 22 -4 2 -101 0 -216 -6 -239 -10 -268 -7 -284 28 -13 29 -28 177
-38 375 -6 121 -5 137 11 150 11 9 59 17 148 22 221 13 392 25 394 26 1 1 9
-11 18 -28z m-2465 -4 c0 -8 -4 -18 -10 -21 -5 -3 -10 -17 -10 -30 0 -13 5
-27 10 -30 6 -3 10 -15 10 -26 0 -14 7 -19 28 -20 20 -1 22 -2 7 -6 -11 -3
-28 -12 -38 -21 -9 -8 -20 -12 -25 -8 -4 4 1 13 10 20 11 8 14 17 7 27 -8 12
-10 12 -19 -1 -8 -13 -13 -13 -30 -2 -11 7 -26 10 -33 7 -7 -4 0 3 15 15 14
11 30 35 33 53 8 34 22 57 36 57 5 0 9 -6 9 -14z m1837 -21 c36 -25 44 -78 49
-300 5 -224 0 -258 -41 -262 -11 -1 -139 -7 -285 -13 -146 -6 -415 -17 -599
-25 -441 -20 -403 -21 -395 12 4 15 31 62 61 105 29 43 53 86 53 94 0 8 10 25
23 38 30 31 47 62 112 193 51 105 57 112 87 117 40 5 316 22 603 36 116 6 221
12 235 14 57 7 77 5 97 -9z m-4080 -1 c-3 -3 -12 -4 -19 -1 -8 3 -5 6 6 6 11
1 17 -2 13 -5z m-1790 -41 c22 -24 24 -34 20 -75 -4 -34 -2 -48 6 -49 7 -1 1
-4 -13 -8 -19 -5 -26 -16 -33 -48 -4 -23 -14 -46 -21 -52 -30 -25 -67 20 -47
56 5 10 14 48 21 83 10 63 28 120 37 120 2 0 15 -12 30 -27z m-6259 -15 c-7
-19 -38 -22 -38 -4 0 10 9 16 21 16 12 0 19 -5 17 -12z m1167 -42 c20 -16 40
-22 56 -19 21 4 26 -1 37 -31 7 -20 20 -36 29 -36 8 0 29 -16 46 -35 17 -19
39 -35 49 -35 10 0 18 -4 18 -10 0 -5 6 -10 13 -10 7 0 18 -9 25 -20 23 -37
-10 -23 -125 54 -122 80 -203 143 -203 157 0 16 22 10 55 -15z m-1365 10 c0
-3 -4 -8 -10 -11 -5 -3 -10 -1 -10 4 0 6 5 11 10 11 6 0 10 -2 10 -4z m13604
-38 c5 -22 12 -28 34 -29 17 -1 20 -3 10 -6 -14 -3 -18 -15 -18 -55 0 -40 -3
-49 -15 -44 -8 3 -15 1 -15 -5 0 -6 -10 -9 -22 -7 -21 3 -23 9 -25 83 -2 68 0
77 11 62 12 -16 14 -14 21 15 7 34 9 33 19 -14z m-3197 -83 c3 -96 2 -102 -27
-147 -28 -44 -33 -48 -69 -48 -22 0 -55 -9 -74 -20 l-34 -20 -49 22 c-48 21
-82 23 -274 18 -19 -1 -69 -1 -110 1 -41 1 -95 -4 -120 -11 -25 -8 -49 -14
-55 -15 -71 -9 -165 -47 -165 -67 0 -6 -7 -8 -15 -5 -8 4 -27 0 -42 -8 -15 -8
-34 -15 -40 -15 -22 0 -14 15 16 28 26 12 28 15 23 61 -5 60 12 114 42 135 13
8 26 29 30 46 3 17 15 44 26 60 18 25 25 28 87 29 38 1 75 4 84 6 31 10 50
-29 58 -122 l8 -88 2 100 c1 55 5 106 10 114 6 9 34 15 83 18 40 2 159 10 263
17 105 8 224 13 265 12 l75 -1 2 -100z m3333 90 c7 -8 19 -15 26 -15 19 0 18
-16 -2 -24 -20 -8 -34 1 -34 20 0 8 -4 14 -10 14 -5 0 -10 5 -10 10 0 15 16
12 30 -5z m-35 -14 c3 -5 1 -12 -5 -16 -5 -3 -10 1 -10 9 0 18 6 21 15 7z
m-2945 -81 c0 -5 -11 -10 -25 -10 -14 0 -25 5 -25 10 0 6 11 10 25 10 14 0 25
-4 25 -10z m-2267 -127 c3 -15 2 -35 -3 -43 -4 -8 -6 -30 -5 -47 1 -18 -3 -37
-11 -44 -16 -13 -19 -45 -4 -54 6 -3 10 -16 10 -29 0 -12 5 -27 12 -34 16 -16
3 -28 -61 -53 -51 -19 -52 -19 -46 0 3 12 0 21 -10 25 -8 3 -15 17 -15 31 0
14 -6 25 -12 25 -7 0 -2 11 12 23 43 38 62 75 55 108 -6 25 -4 29 14 29 23 0
37 36 28 70 -4 14 0 20 13 20 11 0 20 -10 23 -27z m-2085 -45 c0 -41 -24 -98
-40 -98 -4 0 -8 10 -8 23 0 28 31 117 41 117 4 0 8 -19 7 -42z m1816 24 c3 -5
-6 -20 -19 -34 -13 -14 -22 -28 -19 -31 3 -3 1 -8 -5 -12 -6 -3 -11 0 -11 7 0
8 -5 6 -11 -4 -14 -26 -39 -22 -39 5 0 32 15 50 52 64 41 14 46 15 52 5z
m2486 -17 c7 -9 10 -19 6 -22 -8 -9 -38 9 -44 25 -5 17 23 15 38 -3z m-6523
-46 l3 -34 -14 30 -14 30 -1 -47 c-1 -27 -5 -48 -11 -48 -5 0 -10 19 -10 43 0
69 43 93 47 26z m-2971 -24 c18 -14 43 -29 56 -34 20 -8 21 -10 5 -16 -22 -9
-75 16 -106 49 -22 23 -22 26 -6 26 10 0 33 -11 51 -25z m15539 -25 c19 -21
18 -16 40 -311 16 -201 13 -247 -14 -263 -5 -4 -207 -11 -448 -17 -343 -9
-444 -14 -465 -25 -22 -11 -28 -12 -28 -2 -1 7 -14 29 -31 48 -29 34 -30 35
-45 15 -14 -19 -16 -19 -25 -2 -6 9 -17 17 -24 17 -8 0 -15 6 -15 14 0 8 -6
21 -14 28 -7 8 -21 28 -30 46 -20 38 -29 42 -20 8 4 -19 1 -26 -16 -31 -56
-18 -71 -13 -119 34 -25 25 -62 57 -82 70 l-37 25 -7 155 c-9 188 -14 181 124
181 53 1 159 3 236 6 309 12 630 21 811 22 178 2 192 1 209 -18z m-15794 -23
c-16 -16 -25 -1 -10 16 8 8 16 11 18 5 2 -5 -2 -15 -8 -21z m12553 -24 c-2
-29 2 -50 9 -55 18 -11 12 -175 -8 -194 -8 -9 -15 -19 -15 -24 0 -15 -42 -33
-49 -23 -3 6 -13 13 -21 16 -12 4 -12 6 2 6 38 2 49 74 23 146 -8 22 -14 52
-15 66 0 23 3 25 30 21 l30 -4 0 51 c0 29 4 50 9 47 5 -3 7 -27 5 -53z m-5364
8 c12 -24 -3 -36 -20 -16 -7 8 -19 15 -26 15 -8 0 -14 5 -14 10 0 18 49 11 60
-9z m-7211 -48 c0 -25 -1 -26 -9 -8 -12 27 -12 35 0 35 6 0 10 -12 9 -27z
m3200 -19 c-6 -7 -9 -23 -8 -36 2 -13 -3 -34 -10 -47 -9 -16 -11 -42 -8 -75
l6 -51 -16 30 c-20 37 -30 159 -14 169 6 4 11 16 11 26 0 24 22 32 37 12 9
-11 10 -19 2 -28z m2061 -14 c13 -9 13 -11 0 -20 -22 -15 -30 -12 -30 10 0 22
8 25 30 10z m-369 -115 c3 -55 9 -110 13 -122 11 -34 32 -17 32 25 1 20 5 57
10 82 10 47 29 58 66 36 23 -14 35 1 20 24 -18 29 -16 29 31 13 41 -15 57 -18
147 -28 25 -2 59 -6 77 -8 17 -2 38 -9 46 -16 8 -6 19 -11 23 -10 5 2 29 -4
52 -11 34 -11 48 -11 63 -2 10 7 24 12 31 12 9 0 8 -3 -2 -10 -12 -8 -11 -10
8 -10 19 0 22 -5 22 -35 0 -19 3 -35 8 -35 4 0 12 -12 19 -26 16 -34 3 -54
-60 -94 -36 -23 -53 -28 -80 -23 -51 8 -136 -23 -155 -57 -8 -14 -29 -33 -45
-40 -16 -7 -32 -21 -34 -31 -3 -11 -9 -19 -14 -19 -4 0 -25 -11 -45 -25 -20
-14 -46 -25 -58 -26 -12 0 -15 -3 -8 -6 19 -8 14 -21 -10 -25 -15 -2 -24 -11
-26 -25 -2 -13 -9 -23 -15 -23 -17 -1 -107 -126 -118 -163 -5 -18 -9 -47 -9
-65 0 -18 -10 -49 -23 -70 -36 -57 -39 -69 -46 -189 -4 -62 -12 -118 -18 -124
-19 -19 -42 41 -42 104 1 46 -4 63 -35 111 -29 46 -36 66 -36 109 0 28 -6 70
-14 92 -17 51 -30 191 -19 198 5 3 62 9 127 13 64 4 119 11 122 16 3 5 10 69
16 142 11 141 7 196 -15 177 -7 -5 -56 -10 -110 -10 -89 1 -97 2 -97 20 0 12
10 23 25 29 14 5 25 14 25 19 0 5 10 11 22 13 21 3 21 4 -7 22 -16 10 -44 22
-62 26 -29 7 -36 5 -54 -21 -17 -24 -18 -29 -5 -29 9 0 16 -7 16 -15 0 -8 5
-15 10 -15 14 0 12 -26 -2 -38 -7 -6 -45 -12 -84 -15 -62 -5 -72 -3 -83 14 -6
11 -8 25 -4 32 4 7 7 19 5 27 -1 8 2 21 7 29 8 13 15 12 50 -1 l41 -16 0 28
c0 17 -7 34 -17 40 -16 10 -16 11 4 7 12 -3 24 0 26 6 3 9 69 24 147 32 19 2
38 4 41 4 4 1 10 17 13 36 4 20 11 33 17 30 5 -4 9 -1 9 5 0 6 12 10 28 8 27
-3 27 -3 33 -103z m-226 35 c-3 -5 -15 -10 -26 -10 -10 0 -19 5 -19 10 0 6 12
10 26 10 14 0 23 -4 19 -10z m-215 -10 c0 -5 -4 -10 -10 -10 -5 0 -10 5 -10
10 0 6 5 10 10 10 6 0 10 -4 10 -10z m-1216 -25 c3 -8 1 -15 -4 -15 -6 0 -10
-13 -10 -30 0 -16 -4 -30 -10 -30 -5 0 -10 13 -10 29 0 52 20 80 34 46z m-921
-111 c-2 -109 -15 -184 -32 -184 -5 0 -14 20 -21 44 -21 76 12 256 48 256 4 0
6 -52 5 -116z m2212 106 c4 -6 -6 -10 -22 -10 -22 0 -25 2 -13 10 19 12 27 12
35 0z m7925 -53 c11 -5 9 -6 -4 -4 -11 1 -21 9 -23 17 -3 10 -2 11 4 4 4 -6
15 -14 23 -17z m-5861 -39 c-1 -31 -1 -31 -8 -8 -5 14 -6 28 -4 33 9 15 13 6
12 -25z m-2139 -62 c0 -22 -4 -27 -16 -22 -9 3 -20 6 -25 6 -13 0 -11 54 3 68
16 16 37 -14 38 -52z m7708 27 c-4 -20 -48 -26 -48 -6 0 8 4 12 9 8 5 -3 12
-1 16 5 10 16 27 12 23 -7z m-5338 -33 c9 -16 8 -18 -5 -14 -8 4 -15 10 -15
15 0 5 -12 6 -26 3 -19 -5 -25 -4 -20 5 12 18 54 13 66 -9z m-3604 -48 c24
-39 -52 -141 -95 -127 -18 5 -21 14 -21 56 0 72 12 89 63 89 30 0 45 -5 53
-18z m2915 -54 c-26 -68 -71 -115 -71 -74 0 8 -6 17 -12 20 -10 5 -10 7 0 12
6 3 12 12 12 19 0 21 29 45 55 45 21 0 23 -3 16 -22z m7355 -22 c11 -8 46 -21
79 -30 53 -14 74 -28 75 -48 0 -21 -88 10 -122 42 -11 10 -34 26 -52 34 -17 9
-24 16 -16 16 9 0 25 -6 36 -14z m-10178 -86 c15 -19 36 -41 46 -49 10 -8 28
-25 39 -38 14 -15 27 -21 40 -17 16 5 18 2 12 -18 -4 -12 -15 -34 -26 -48 -11
-14 -27 -40 -36 -58 -20 -39 -35 -37 -47 9 -5 19 -12 36 -15 39 -26 23 -91
199 -91 244 l1 31 25 -30 c14 -16 37 -46 52 -65z m477 40 c-4 -23 -9 -39 -11
-37 -3 2 -2 23 2 46 4 23 9 40 11 37 3 -3 2 -23 -2 -46z m4939 -38 c-7 -42 20
-86 62 -103 13 -4 23 -14 22 -21 -2 -7 3 -12 10 -10 8 1 12 -10 12 -32 0 -19
-6 -36 -12 -39 -10 -3 -10 -7 -2 -18 6 -8 14 -39 18 -69 4 -30 12 -60 18 -67
6 -8 11 -47 12 -87 0 -41 4 -78 8 -82 4 -4 21 -7 38 -6 27 1 28 -1 17 -19 -14
-23 -78 -26 -96 -5 -7 8 -14 54 -17 103 -3 48 -9 114 -15 146 -5 31 -8 61 -5
66 3 4 -6 23 -19 43 -13 19 -31 59 -40 89 -9 30 -21 64 -26 77 -5 14 -4 31 3
47 16 35 19 31 12 -13z m65 -29 c1 -7 -6 -13 -14 -13 -16 0 -22 50 -8 64 7 7
20 -23 22 -51z m7077 -13 c12 -25 33 -297 36 -463 1 -65 -2 -91 -13 -101 -11
-11 -89 -15 -394 -17 l-380 -4 3 130 c5 175 2 188 -53 220 -40 23 -45 30 -45
61 0 19 -7 51 -15 71 -8 19 -15 53 -15 74 l0 39 68 1 c37 1 173 5 302 9 129 3
293 6 365 6 128 -1 130 -1 141 -26z m-9876 11 c0 -6 -4 -13 -10 -16 -5 -3 -8
-27 -5 -52 4 -45 -10 -138 -24 -158 -4 -5 -8 -23 -9 -38 -1 -16 -6 -36 -11
-45 -9 -16 -10 -16 -16 0 -6 14 -10 15 -26 5 -10 -6 -19 -16 -19 -22 0 -5 -13
-19 -28 -30 l-27 -20 23 29 c12 16 22 41 22 55 0 15 6 35 14 46 7 11 21 56 30
100 17 77 55 155 76 155 6 0 10 -4 10 -9z m7797 -16 c29 -12 33 -18 23 -29
-10 -13 -16 -11 -41 11 -43 38 -39 42 18 18z m-8730 -71 c-3 -3 -12 -4 -19 -1
-8 3 -5 6 6 6 11 1 17 -2 13 -5z m-2323 -10 c12 -5 13 -10 5 -25 -14 -27 -29
-24 -29 6 0 27 1 28 24 19z m4416 -4 c0 -5 -2 -10 -4 -10 -3 0 -8 5 -11 10 -3
6 -1 10 4 10 6 0 11 -4 11 -10z m6960 -37 c0 -7 -4 -13 -9 -13 -5 0 -23 -21
-40 -46 -24 -35 -29 -49 -21 -64 14 -26 13 -67 -2 -73 -10 -3 -10 -8 1 -21 8
-9 11 -20 7 -23 -4 -4 -11 -1 -15 6 -5 8 -14 10 -22 5 -7 -4 -34 -8 -60 -8
-46 -1 -46 -1 -36 24 6 14 16 30 21 35 6 6 12 25 13 42 1 18 11 43 23 55 11
12 20 27 20 34 0 6 19 30 41 53 40 39 43 41 60 25 11 -10 19 -23 19 -31z
m-12891 -27 c-4 -5 -5 -30 -2 -56 4 -31 1 -50 -6 -55 -7 -4 -15 -4 -18 -1 -9
9 -7 107 4 150 5 16 6 16 17 -5 7 -13 9 -28 5 -33z m11021 3 c0 -5 -4 -9 -10
-9 -5 0 -10 7 -10 16 0 8 5 12 10 9 6 -3 10 -10 10 -16z m-11350 -47 c0 -7 -4
-10 -10 -7 -5 3 -10 16 -10 28 0 18 2 19 10 7 5 -8 10 -21 10 -28z m11360 -4
c0 -18 -2 -20 -9 -8 -6 8 -7 18 -5 22 9 14 14 9 14 -14z m-11383 -7 c3 -12 11
-17 22 -14 12 3 23 -10 41 -49 13 -29 26 -57 28 -61 2 -5 -5 -3 -17 4 -15 10
-23 11 -32 2 -22 -22 -47 -2 -59 46 -6 25 -14 56 -17 69 -4 16 -1 22 12 22 9
0 19 -8 22 -19z m11270 -23 c-3 -8 -6 -5 -6 6 -1 11 2 17 5 13 3 -3 4 -12 1
-19z m-4778 -25 c33 -19 45 -58 14 -45 -33 13 -63 37 -63 49 0 18 13 16 49 -4z
m4921 -22 c0 -6 -4 -13 -10 -16 -5 -3 -10 1 -10 9 0 9 5 16 10 16 6 0 10 -4
10 -9z m-5149 -75 c0 -6 12 -20 27 -32 28 -22 261 -154 271 -154 3 0 18 -13
32 -28 l27 -28 -20 -39 c-11 -22 -28 -56 -38 -75 -18 -36 -39 -97 -61 -183 -6
-26 -16 -46 -21 -45 -6 2 -29 44 -52 93 -23 50 -54 109 -69 133 -16 24 -48 84
-73 133 -42 83 -46 98 -50 182 -5 85 -4 90 10 73 9 -11 16 -25 17 -30z m270
25 c-8 -5 -20 -7 -28 -4 -21 8 -15 13 15 13 20 0 23 -3 13 -9z m-8507 -30 c17
-6 17 -8 4 -14 -9 -3 -24 1 -35 8 -14 11 -15 14 -3 14 8 0 24 -4 34 -8z
m10636 -1 c0 -5 -5 -10 -11 -10 -5 0 -7 5 -4 10 3 6 8 10 11 10 2 0 4 -4 4
-10z m-3954 -71 c-15 -22 -25 -43 -22 -46 3 -3 -1 -15 -9 -27 -17 -24 -19 -58
-5 -72 16 -16 -17 -54 -48 -55 -15 0 -21 -3 -13 -6 11 -4 11 -7 0 -14 -9 -5
-13 -27 -12 -63 1 -31 -2 -54 -7 -51 -5 3 -10 -11 -12 -32 -2 -20 -8 -38 -14
-40 -7 -2 -10 5 -7 20 3 14 0 28 -6 31 -20 13 -49 -17 -55 -57 -8 -47 -5 -52
24 -37 37 20 41 6 5 -19 -20 -13 -38 -21 -42 -18 -9 9 -4 118 8 180 5 29 14
82 18 119 11 81 53 150 63 101 2 -12 13 -6 43 27 103 113 144 140 91 59z
m3929 33 c-3 -3 -11 0 -18 7 -9 10 -8 11 6 5 10 -3 15 -9 12 -12z m4595 3 c14
-16 10 -18 -14 -9 -9 3 -16 10 -16 15 0 14 16 11 30 -6z m-15008 -7 c-9 -9
-15 -9 -24 0 -9 9 -7 12 12 12 19 0 21 -3 12 -12z m91 -5 c-7 -2 -19 -2 -25 0
-7 3 -2 5 12 5 14 0 19 -2 13 -5z m123 -3 c8 0 14 -4 14 -10 0 -5 -9 -10 -20
-10 -11 0 -20 -4 -20 -10 0 -5 -7 -10 -16 -10 -11 0 -14 5 -10 16 3 9 6 20 6
26 0 6 7 7 16 4 9 -3 22 -6 30 -6z m10146 -47 c-10 -16 -27 -52 -37 -80 -23
-65 -30 -63 -12 3 17 66 60 145 65 122 2 -10 -5 -30 -16 -45z m4673 -13 c3 -5
1 -10 -4 -10 -6 0 -11 5 -11 10 0 6 2 10 4 10 3 0 8 -4 11 -10z m-12525 -39
c0 -6 -4 -13 -10 -16 -5 -3 -10 1 -10 9 0 9 5 16 10 16 6 0 10 -4 10 -9z
m7580 -13 c0 -7 6 -24 13 -38 23 -43 27 -86 12 -106 -8 -11 -15 -29 -15 -41 0
-13 -4 -23 -10 -23 -5 0 -10 10 -10 23 0 15 -9 29 -25 37 -25 13 -45 56 -45
97 0 16 11 30 33 43 37 23 47 25 47 8z m4655 -34 c-11 -59 -55 -113 -55 -68 0
16 48 104 57 104 3 0 2 -16 -2 -36z m-12308 4 c-3 -8 -6 -5 -6 6 -1 11 2 17 5
13 3 -3 4 -12 1 -19z m7293 -24 c0 -14 4 -22 10 -19 5 3 15 -5 21 -19 7 -14
23 -33 36 -41 12 -9 23 -20 23 -26 0 -5 11 -20 25 -32 l26 -22 -26 -27 c-14
-15 -25 -31 -25 -35 0 -4 -12 -13 -26 -20 -36 -17 -84 7 -84 40 0 15 -13 34
-35 51 -26 21 -35 36 -35 57 0 44 26 98 52 109 35 13 38 12 38 -16z m-7870 -4
c0 -5 -4 -10 -10 -10 -5 0 -10 5 -10 10 0 6 5 10 10 10 6 0 10 -4 10 -10z
m4900 -10 c0 -5 -7 -10 -15 -10 -8 0 -15 5 -15 10 0 6 7 10 15 10 8 0 15 -4
15 -10z m-6640 -80 c0 -5 -5 -10 -11 -10 -5 0 -7 5 -4 10 3 6 8 10 11 10 2 0
4 -4 4 -10z m16661 5 c17 -6 18 -17 35 -362 8 -164 14 -158 -177 -163 -79 -1
-205 -3 -279 -4 -74 -1 -142 -5 -151 -9 -18 -9 -95 -5 -105 5 -3 4 18 25 48
47 29 23 58 45 63 49 159 122 261 215 252 230 -4 5 -46 13 -95 17 -144 10
-303 36 -348 57 -11 5 -27 9 -35 8 -56 -8 -65 22 -23 83 23 35 28 37 67 33 23
-2 103 -1 177 3 198 9 553 13 571 6z m-16261 -19 c0 -3 -4 -8 -10 -11 -5 -3
-10 -1 -10 4 0 6 5 11 10 11 6 0 10 -2 10 -4z m8145 -6 c3 -5 1 -10 -4 -10 -6
0 -11 5 -11 10 0 6 2 10 4 10 3 0 8 -4 11 -10z m-4405 -30 c0 -22 -19 -34 -47
-28 -15 3 -15 6 7 26 30 27 40 28 40 2z m8847 -27 c-3 -10 -5 -4 -5 12 0 17 2
24 5 18 2 -7 2 -21 0 -30z m-6368 -69 c6 -15 9 -29 6 -32 -7 -8 -45 29 -45 45
0 23 26 14 39 -13z m2863 17 c-11 -7 -11 -15 2 -46 23 -53 21 -102 -4 -117
-20 -13 -28 -58 -10 -58 21 0 9 -31 -16 -40 -21 -8 -25 -15 -20 -38 5 -23 1
-30 -26 -46 -18 -11 -37 -20 -43 -20 -5 -1 -13 -17 -16 -36 -6 -31 -7 -29 -8
18 -1 71 49 173 84 169 6 0 11 7 13 16 2 10 -3 17 -12 17 -9 0 -22 13 -30 28
-13 25 -13 35 0 80 16 55 37 76 75 79 16 2 19 -1 11 -6z m519 -24 c-1 -12 -15
-9 -19 4 -3 6 1 10 8 8 6 -3 11 -8 11 -12z m-10171 -17 c-6 -12 -22 -26 -36
-32 -13 -6 -24 -17 -24 -24 0 -19 -57 -47 -65 -33 -9 13 23 49 44 49 9 0 22 9
29 20 7 11 19 20 27 20 8 0 15 5 15 10 0 6 5 10 10 10 7 0 7 -7 0 -20z m7005
0 c3 -11 11 -20 16 -20 5 0 9 -5 9 -10 0 -6 -11 -8 -27 -4 -36 9 -36 9 -28 33
8 27 22 27 30 1z m6660 0 c-28 -12 -37 -12 -30 0 3 6 16 10 28 9 21 0 21 -1 2
-9z m-72 -31 c3 -13 1 -19 -6 -16 -15 5 -22 37 -9 37 5 0 12 -9 15 -21z m172
11 c3 -6 -1 -13 -10 -16 -19 -8 -30 0 -20 15 8 14 22 14 30 1z m-7215 -4 c0
-11 -19 -15 -25 -6 -3 5 1 10 9 10 9 0 16 -2 16 -4z m-726 -66 c24 -44 33 -51
73 -61 28 -8 60 -26 84 -49 38 -36 39 -38 39 -108 0 -39 7 -93 16 -119 13 -37
14 -54 6 -78 -19 -52 -24 -129 -13 -172 13 -46 55 -103 76 -103 50 0 62 -101
19 -157 -30 -39 -44 -42 -44 -9 0 37 -23 50 -81 43 -82 -10 -149 -72 -114
-106 14 -12 18 -13 22 -3 14 38 50 64 95 69 30 4 48 1 53 -7 18 -29 -11 -324
-36 -371 -8 -15 -21 -19 -64 -19 -53 0 -54 0 -59 33 -3 17 -4 48 -3 67 1 25
-2 35 -13 35 -12 0 -15 -14 -15 -63 0 -68 -9 -82 -57 -82 -35 0 -44 16 -23 41
15 16 17 30 11 91 -4 40 -8 102 -9 138 -2 50 -7 72 -25 96 -34 44 -22 64 39
64 39 0 55 5 82 29 46 41 82 112 101 201 l17 76 -35 92 c-20 51 -49 112 -64
135 -16 23 -39 78 -51 123 -11 44 -32 109 -46 142 -14 34 -25 66 -25 72 0 24
19 7 44 -40z m8370 -15 c-4 -8 -10 -12 -15 -9 -14 8 -10 24 6 24 9 0 12 -6 9
-15z m-5796 -22 c-9 -2 -19 -16 -21 -31 -4 -24 -4 -24 -6 6 -1 27 2 32 22 31
15 -1 17 -3 5 -6z m1320 -17 c3 -12 -1 -17 -10 -14 -7 3 -15 13 -16 22 -3 12
1 17 10 14 7 -3 15 -13 16 -22z m3862 4 c0 -11 -6 -20 -13 -20 -19 0 -27 10
-20 26 8 21 33 17 33 -6z m370 10 c0 -5 -5 -10 -11 -10 -5 0 -7 5 -4 10 3 6 8
10 11 10 2 0 4 -4 4 -10z m-11380 -72 c13 -35 30 -71 38 -81 14 -16 13 -19 -4
-32 -26 -20 -35 -15 -50 26 -11 31 -19 149 -10 149 2 0 14 -28 26 -62z m10940
38 c0 -8 -4 -17 -9 -21 -12 -7 -24 12 -16 25 9 15 25 12 25 -4z m-226 -67 c-3
-5 -10 -7 -15 -3 -5 3 -7 10 -3 15 3 5 10 7 15 3 5 -3 7 -10 3 -15z m-7858
-24 c17 -13 17 -14 2 -15 -9 0 -20 5 -23 10 -4 6 -11 8 -16 5 -5 -4 -9 -1 -9
4 0 16 23 13 46 -4z m-5544 -100 c6 -14 17 -25 25 -25 7 0 13 -4 13 -8 0 -14
-49 -56 -57 -49 -8 9 -21 95 -15 102 11 11 23 4 34 -20z m2755 19 c-3 -3 -12
-4 -19 -1 -8 3 -5 6 6 6 11 1 17 -2 13 -5z m5878 -14 c3 -5 1 -10 -4 -10 -6 0
-11 5 -11 10 0 6 2 10 4 10 3 0 8 -4 11 -10z m-8685 -20 c0 -5 -7 -10 -15 -10
-8 0 -15 5 -15 10 0 6 7 10 15 10 8 0 15 -4 15 -10z m280 -85 c0 -8 18 -28 39
-43 58 -40 89 -136 38 -116 -9 3 -15 9 -12 14 2 4 -2 16 -10 26 -11 15 -18 17
-32 8 -14 -9 -20 -7 -30 14 -7 13 -13 31 -13 38 0 13 -17 23 -64 38 -15 5 -16
9 -6 21 17 21 90 20 90 0z m-140 -9 c0 -3 -4 -8 -10 -11 -5 -3 -10 -1 -10 4 0
6 5 11 10 11 6 0 10 -2 10 -4z m4132 -59 c-3 -51 -6 -57 -23 -52 -13 4 -19 2
-19 -9 0 -9 -6 -16 -14 -16 -16 0 -6 70 15 97 14 19 42 44 44 40 0 -1 -1 -28
-3 -60z m-4207 -66 c-3 -37 -5 -69 -5 -74 0 -4 -11 0 -25 9 -22 14 -25 24 -25
73 0 65 13 86 41 68 15 -9 17 -21 14 -76z m65 -2 c0 -5 -7 -9 -15 -9 -15 0
-20 12 -9 23 8 8 24 -1 24 -14z m15052 -110 c21 -13 38 -27 38 -30 0 -3 -24
-37 -53 -75 -29 -39 -66 -97 -82 -130 -15 -32 -33 -62 -39 -66 -6 -4 -7 -8 -3
-8 5 0 5 -5 1 -12 -19 -30 -25 51 -18 239 l7 202 56 -48 c31 -26 73 -58 93
-72z m-14742 69 c0 -23 -3 -29 -11 -21 -6 6 -8 20 -4 32 9 30 15 26 15 -11z
m6237 -10 c-3 -8 -6 -5 -6 6 -1 11 2 17 5 13 3 -3 4 -12 1 -19z m-6557 -18
l20 -20 -25 0 c-18 0 -25 5 -25 20 0 11 2 20 5 20 3 0 14 -9 25 -20z m12428
-20 c2 -19 9 -38 15 -42 7 -4 41 -8 76 -8 72 0 126 -25 142 -67 5 -13 9 -76 9
-139 0 -105 -2 -115 -17 -110 -10 3 -47 7 -83 10 -90 6 -116 14 -127 39 -29
62 -83 281 -83 336 0 19 5 22 33 19 29 -3 32 -7 35 -38z m222 25 c10 -12 10
-18 0 -30 -17 -20 -27 -19 -35 5 -11 36 12 53 35 25z m1440 -16 c0 -24 -23
-21 -28 4 -2 10 3 17 12 17 10 0 16 -9 16 -21z m1476 -14 c-3 -19 -9 -51 -12
-71 -5 -26 -3 -35 5 -30 6 4 9 12 6 17 -4 5 0 9 8 9 12 0 13 -9 6 -47 -5 -26
-13 -51 -17 -55 -13 -13 -44 3 -38 19 3 8 2 11 -4 8 -5 -3 -19 5 -32 18 -13
13 -43 36 -68 52 l-45 29 30 6 c34 7 73 27 92 46 7 7 22 10 33 7 16 -4 19 -2
14 11 -4 11 -1 16 11 16 14 0 16 -6 11 -35z m-8976 -6 c0 -5 7 -9 15 -9 18 0
49 -46 40 -60 -4 -6 -1 -17 5 -25 10 -12 9 -15 -9 -15 -17 0 -27 11 -42 48
-11 26 -24 55 -29 64 -8 13 -6 16 5 12 8 -4 15 -10 15 -15z m-6180 -7 c0 -5
-7 -9 -15 -9 -8 0 -15 4 -15 9 0 4 7 8 15 8 8 0 15 -4 15 -8z m6215 -222 c1
-14 31 -59 59 -90 18 -19 40 -47 49 -62 l17 -27 -31 1 c-16 1 -32 6 -36 11 -4
6 5 8 23 4 27 -5 27 -4 9 9 -11 8 -25 12 -33 9 -7 -2 -16 3 -19 13 -4 9 -10
19 -13 22 -16 11 -53 97 -57 130 l-5 35 19 -25 c10 -14 18 -27 18 -30z m-863
-17 c27 -8 43 -64 39 -140 -1 -26 -32 -32 -48 -10 -11 14 -32 85 -40 136 -5
30 -3 33 13 26 11 -4 27 -9 36 -12z m-3647 -23 c-3 -5 -11 -10 -16 -10 -6 0
-7 5 -4 10 3 6 11 10 16 10 6 0 7 -4 4 -10z m11385 3 c0 -5 3 -18 6 -30 5 -17
2 -23 -9 -23 -16 0 -37 28 -37 49 0 12 40 15 40 4z m1944 -39 c8 -20 -2 -37
-16 -28 -5 3 -24 -8 -43 -26 -27 -26 -33 -29 -39 -15 -3 10 4 27 19 43 14 15
25 30 25 34 0 15 48 8 54 -8z m-3004 -28 c0 -3 -4 -8 -10 -11 -5 -3 -10 -1
-10 4 0 6 5 11 10 11 6 0 10 -2 10 -4z m2532 -18 c-3 -13 -11 -32 -18 -43 -6
-11 -17 -37 -24 -57 -6 -21 -16 -38 -21 -38 -5 0 -9 -7 -9 -15 0 -8 -11 -39
-25 -69 -14 -30 -25 -62 -25 -70 0 -9 -12 -41 -26 -73 -14 -32 -27 -65 -29
-73 -2 -8 -8 -26 -14 -40 -24 -54 0 34 35 127 19 51 34 100 34 110 0 10 6 30
14 44 7 14 16 42 20 62 4 20 22 57 41 82 19 25 35 52 35 60 0 8 4 15 9 15 5 0
7 -10 3 -22z m-1492 -13 c0 -8 -4 -15 -9 -15 -13 0 -22 16 -14 24 11 11 23 6
23 -9z m1940 -16 c0 -5 -7 -9 -15 -9 -9 0 -15 -9 -15 -25 0 -29 -7 -31 -38 -9
-29 20 -28 32 4 32 15 0 31 7 36 16 9 16 28 13 28 -5z m-10616 -68 c3 -5 -1
-12 -10 -15 -27 -11 -37 -7 -24 9 14 17 26 19 34 6z m-579 -41 c18 -8 17 -9
-7 -9 -15 -1 -30 4 -33 9 -7 12 12 12 40 0z m60 -10 c3 -5 -1 -10 -9 -10 -8 0
-18 5 -21 10 -3 6 1 10 9 10 8 0 18 -4 21 -10z m210 -20 c28 -4 40 -8 28 -9
-12 0 -48 -8 -80 -16 -31 -8 -66 -15 -78 -14 -20 0 -20 0 0 9 18 7 18 9 -9 19
-16 6 -31 9 -34 6 -3 -3 -1 -5 5 -5 6 0 9 -9 6 -20 -3 -13 -13 -20 -27 -19
-17 1 -17 2 -3 6 20 5 22 14 5 31 -10 10 -10 15 2 22 14 9 73 6 185 -10z
m-404 -10 c24 -11 56 -20 72 -20 27 0 27 0 8 -19 -11 -11 -41 -27 -68 -36 -26
-9 -51 -21 -54 -27 -4 -6 -18 -10 -33 -10 -14 0 -26 -4 -26 -9 0 -5 -11 -9
-25 -9 -37 0 -42 -26 -11 -55 31 -29 32 -44 6 -93 -19 -36 -53 -111 -91 -199
-10 -25 -19 -53 -19 -62 0 -10 -9 -28 -20 -40 -10 -13 -24 -39 -31 -60 -6 -20
-20 -48 -30 -62 -10 -14 -16 -29 -13 -32 3 -3 -6 -23 -20 -46 -14 -22 -26 -44
-26 -49 0 -20 -62 -90 -84 -94 -37 -7 -48 10 -27 41 17 26 198 440 245 563 13
35 31 80 40 101 l16 37 -24 -4 c-14 -3 -38 -11 -53 -20 -15 -8 -38 -20 -51
-27 -12 -7 -25 -10 -28 -6 -9 8 16 77 27 77 6 0 7 5 4 10 -4 6 -11 7 -17 4 -6
-4 -9 -1 -6 7 3 10 278 159 293 159 2 0 22 -9 46 -20z m202 -17 c-7 -2 -19 -2
-25 0 -7 3 -2 5 12 5 14 0 19 -2 13 -5z m6917 -23 c21 -6 22 -8 8 -14 -16 -7
-22 -46 -7 -46 4 0 6 -14 5 -31 l-2 -31 48 4 c35 4 63 16 107 47 33 22 70 41
83 41 36 0 122 -36 237 -100 58 -32 157 -82 219 -112 61 -29 112 -55 112 -59
0 -3 -48 -20 -107 -37 -60 -17 -128 -38 -153 -46 -154 -52 -373 -101 -535
-120 -134 -17 -190 -40 -244 -102 l-31 -34 -171 6 -172 7 -76 65 c-42 35 -77
68 -79 73 -2 4 11 54 29 109 17 56 32 115 34 131 1 16 15 44 30 61 15 17 33
52 40 77 13 53 11 52 160 77 55 10 127 23 160 30 66 14 265 17 305 4z m2288
-40 c-1 -14 0 -38 1 -55 l4 -30 6 35 7 35 5 -43 c3 -30 1 -41 -7 -38 -7 3 -10
-3 -7 -15 3 -10 0 -26 -7 -34 -7 -8 -10 -22 -6 -30 6 -16 2 -18 -31 -9 -18 5
-23 16 -29 63 -4 31 -11 59 -17 63 -6 3 -26 4 -46 1 -27 -3 -32 -2 -21 6 8 6
29 11 46 11 36 0 51 15 60 58 6 27 9 29 25 19 11 -7 18 -22 17 -37z m1869 28
c-3 -8 -6 -5 -6 6 -1 11 2 17 5 13 3 -3 4 -12 1 -19z m-1827 -29 c0 -5 8 -9
17 -9 9 0 14 -2 11 -5 -10 -11 -58 7 -58 21 0 8 6 11 15 8 8 -4 15 -10 15 -15z
m-292 -66 c-10 -2 -26 -2 -35 0 -10 3 -2 5 17 5 19 0 27 -2 18 -5z m-636 -51
c17 -7 17 -10 -3 -52 -33 -72 -34 -73 -63 -83 -33 -11 -106 -1 -131 17 -29 21
-8 36 50 36 57 0 69 7 55 30 -13 21 6 48 37 53 16 2 30 4 33 5 3 0 13 -3 22
-6z m-295 -8 c19 -5 20 -8 8 -20 -22 -22 -65 -18 -65 6 0 21 16 25 57 14z
m-6272 -13 c10 -17 -12 -21 -25 -6 -10 12 -10 15 3 15 9 0 18 -4 22 -9z m6925
-56 c-15 -19 -21 -19 -46 0 -18 13 -16 14 20 15 33 0 37 -2 26 -15z m-310 -34
c0 -11 -26 -22 -34 -14 -12 12 -5 23 14 23 11 0 20 -4 20 -9z m459 -20 c15
-10 7 -31 -12 -31 -21 0 -40 17 -33 29 9 13 26 14 45 2z m-439 -11 c0 -5 -4
-10 -10 -10 -5 0 -10 5 -10 10 0 6 5 10 10 10 6 0 10 -4 10 -10z m-10260 -51
c0 -6 13 -29 28 -52 56 -82 102 -174 102 -204 0 -17 7 -47 15 -66 8 -20 15
-42 14 -49 0 -7 -5 -2 -10 12 -6 14 -17 28 -25 33 -8 4 -14 15 -14 23 0 9 -8
28 -19 42 -10 15 -22 38 -26 52 -4 14 -17 41 -29 60 -47 78 -68 133 -60 155 6
16 24 11 24 -6z m12882 -41 c-15 -15 -26 -4 -18 18 5 13 9 15 18 6 9 -9 9 -15
0 -24z m-9249 -35 c12 -7 8 -50 -7 -62 -9 -8 -45 -11 -98 -9 -83 3 -83 3 -86
31 -7 56 -1 59 96 52 48 -4 90 -9 95 -12z m5747 -3 c0 -5 -5 -10 -11 -10 -5 0
-7 5 -4 10 3 6 8 10 11 10 2 0 4 -4 4 -10z m3500 2 c0 -4 -5 -13 -11 -19 -6
-6 -11 -36 -12 -67 -1 -30 -4 -50 -8 -44 -4 6 -15 -5 -28 -28 -26 -51 -28 -18
-1 44 11 26 21 56 23 67 6 31 18 55 28 55 5 0 9 -4 9 -8z m-12135 -102 c-3
-36 -7 -108 -9 -161 l-3 -97 61 -16 c34 -9 77 -21 97 -26 29 -8 87 -6 96 4 1
1 11 62 23 136 27 180 29 190 45 190 7 0 20 -11 29 -25 13 -20 14 -33 6 -67
-5 -24 -19 -92 -31 -153 -12 -60 -26 -116 -32 -123 -12 -16 -111 -7 -142 13
-13 7 -41 10 -76 7 -55 -4 -57 -4 -73 28 -11 23 -16 59 -16 117 0 79 -14 114
-23 56 -2 -16 -5 2 -6 40 -1 52 2 67 13 67 9 0 16 17 21 51 10 74 26 41 20
-41z m8685 28 c0 -5 15 -27 33 -48 17 -21 40 -52 49 -68 18 -29 18 -29 -7 -29
-14 0 -28 3 -31 8 -3 5 -16 9 -30 9 -14 0 -23 3 -21 8 3 4 -15 5 -39 4 -39 -4
-44 -2 -50 22 -3 15 -4 35 -1 46 3 11 1 20 -4 20 -5 0 -9 9 -9 19 0 19 10 21
42 7 11 -5 23 -2 34 8 16 16 34 13 34 -6z m-9143 -65 c-8 -46 -15 -53 -32 -28
-8 11 -19 25 -25 32 -5 7 -10 23 -10 37 0 18 6 26 23 28 31 5 51 -26 44 -69z
m393 -9 c0 -17 -4 -44 -9 -60 -5 -16 -13 -51 -16 -79 -7 -50 -26 -46 -20 5 1
14 3 68 4 120 l1 95 20 -25 c11 -14 20 -39 20 -56z m9956 66 c8 0 14 -4 14
-10 0 -5 -7 -10 -15 -10 -8 0 -16 -13 -20 -32 -9 -58 0 -138 17 -138 5 0 16
-7 24 -15 20 -20 42 -19 46 1 2 9 2 54 0 99 -3 75 -5 84 -25 90 -19 6 -17 8
16 17 29 8 45 7 63 -2 13 -7 45 -14 71 -14 27 -1 47 -4 46 -8 -2 -5 -3 -18 -3
-30 0 -16 -3 -19 -8 -10 -6 8 -23 11 -53 8 -24 -3 -52 -5 -62 -5 -13 -1 -17
-7 -13 -18 2 -10 8 -151 11 -313 4 -162 9 -298 11 -302 7 -11 -7 -58 -17 -58
-15 0 -20 42 -23 210 -2 91 -4 168 -5 171 0 4 -8 6 -18 5 -10 0 -19 10 -24 29
l-8 30 -163 -1 c-90 0 -199 -6 -243 -13 -79 -13 -270 -10 -307 4 -10 4 -18 18
-18 30 0 18 7 25 28 29 44 9 194 15 402 17 192 2 238 8 223 32 -8 13 -5 195 4
209 3 5 12 7 20 4 8 -3 21 -6 29 -6z m144 -95 c0 -8 -4 -15 -10 -15 -5 0 -10
7 -10 15 0 8 5 15 10 15 6 0 10 -7 10 -15z m-10480 -25 c0 -5 -2 -10 -4 -10
-3 0 -8 5 -11 10 -3 6 -1 10 4 10 6 0 11 -4 11 -10z m-2115 -10 c8 -13 -25
-13 -45 0 -12 8 -9 10 12 10 15 0 30 -4 33 -10z m655 0 c23 -1 23 -1 6 -12
-22 -12 -531 -2 -606 12 -28 6 75 7 265 5 171 -3 321 -5 335 -5z m484 -22 c22
-20 24 -28 18 -58 -8 -37 -15 -33 -26 13 -4 18 -13 27 -26 27 -10 0 -22 5 -25
10 -3 6 -28 10 -55 10 -46 0 -49 -1 -56 -32 l-8 -33 -5 30 -6 30 -115 3 c-186
4 -110 22 97 22 175 0 183 -1 207 -22z m1079 -10 c14 -13 32 -40 41 -61 13
-33 18 -36 34 -26 14 9 33 9 78 0 32 -6 65 -12 72 -13 15 -2 16 -24 2 -33 -6
-4 -9 -14 -8 -23 2 -13 -6 -18 -39 -20 -24 -2 -43 -7 -43 -11 0 -10 36 -21 71
-21 42 0 58 -27 52 -85 -7 -61 -7 -65 6 -145 6 -36 11 -142 11 -237 0 -144 -2
-171 -14 -167 -8 3 -17 0 -21 -6 -6 -9 -10 -9 -16 1 -6 10 -9 8 -9 -8 0 -32
-18 -29 -25 5 -18 87 -36 136 -55 149 -11 8 -20 20 -20 28 0 8 -8 30 -17 50
-12 25 -23 35 -40 35 -13 0 -26 7 -30 15 -3 9 -20 23 -37 32 -17 9 -38 24 -47
34 -9 11 -22 19 -29 19 -7 0 -32 14 -57 30 -24 17 -50 30 -58 30 -8 0 -17 5
-20 10 -3 6 -14 10 -24 10 -22 0 -28 25 -37 155 l-7 95 38 0 c34 0 37 2 33 25
-3 14 -1 25 3 25 5 0 9 -9 9 -19 0 -26 39 -54 56 -40 8 7 19 7 31 1 32 -18
109 -25 132 -13 18 10 20 15 9 34 -6 12 -11 34 -10 49 2 21 -1 26 -13 22 -10
-4 -15 0 -15 10 0 9 -4 16 -9 16 -5 0 -9 16 -9 35 0 19 1 35 2 35 2 0 14 -10
29 -22z m-2843 -18 c0 -5 -5 -10 -11 -10 -5 0 -7 5 -4 10 3 6 8 10 11 10 2 0
4 -4 4 -10z m15293 -37 c9 -9 -13 -34 -24 -27 -14 8 -11 34 4 34 8 0 17 -3 20
-7z m-92 -73 c31 0 22 -32 -21 -74 -22 -22 -40 -34 -40 -28 0 6 5 14 10 17 6
3 10 17 10 31 0 14 6 24 14 24 8 0 18 5 22 12 5 8 2 9 -9 5 -19 -7 -31 8 -21
25 6 9 9 9 12 0 2 -7 12 -12 23 -12z m-11621 -54 c0 -3 -4 -8 -10 -11 -5 -3
-10 -1 -10 4 0 6 5 11 10 11 6 0 10 -2 10 -4z m12670 -319 c15 -8 25 -21 25
-35 0 -13 7 -27 15 -32 8 -5 11 -12 8 -16 -4 -3 -15 1 -24 10 -32 33 -113 66
-161 67 -43 1 -45 2 -18 9 48 12 128 11 155 -3z m-2802 -87 c35 -21 44 -63 17
-74 -8 -3 -15 -1 -15 4 0 4 -13 11 -28 15 -21 4 -28 12 -30 31 -4 48 8 53 56
24z m-379 -18 c21 -40 4 -44 -240 -53 -435 -16 -429 -16 -445 5 -8 11 -14 23
-14 26 0 4 116 12 258 19 141 7 271 14 287 15 100 9 144 6 154 -12z m572 -78
c11 -6 33 -23 49 -38 26 -23 28 -29 18 -46 -7 -11 -15 -20 -18 -20 -4 0 -34
18 -68 40 -41 27 -68 53 -81 79 -11 21 -18 41 -15 44 3 3 26 -7 50 -22 25 -14
54 -31 65 -37z m-9464 18 c77 -8 110 -22 50 -22 -47 0 -139 -19 -152 -32 -7
-6 40 -7 135 -3 154 8 309 7 323 -2 14 -8 259 -11 307 -3 43 7 43 8 10 9 -23
1 -31 4 -22 10 14 8 -1 12 -123 31 -27 4 45 5 160 2 116 -2 214 -8 220 -13 5
-5 18 -9 30 -10 19 0 19 -1 -2 -16 -31 -21 -29 -33 5 -34 15 -1 -2 -5 -38 -10
-36 -5 -120 -18 -186 -29 -67 -11 -150 -20 -185 -20 -68 0 -82 -5 -92 -32 -3
-9 -21 -19 -39 -23 -18 -4 -50 -20 -70 -36 -40 -32 -44 -31 -133 11 -25 12
-75 22 -134 26 -80 6 -97 10 -114 30 -12 14 -26 20 -36 16 -14 -5 -14 -3 -3
10 14 17 19 15 -78 34 -38 7 -38 16 3 37 32 17 32 17 -60 13 l-93 -3 0 40 0
40 123 -7 c67 -4 154 -10 194 -14z m1986 -71 c26 -4 50 -10 53 -14 14 -13 -18
-43 -60 -55 -62 -19 -110 -3 -125 40 -6 17 -11 33 -11 34 0 7 93 3 143 -5z
m-578 -66 c50 -9 127 -19 173 -22 100 -6 94 -14 -43 -57 -126 -39 -164 -56
-194 -87 -17 -18 -50 -33 -96 -44 -38 -10 -82 -24 -97 -32 -16 -7 -28 -11 -28
-8 0 3 -13 -1 -29 -10 -34 -17 -56 -12 -61 13 -7 45 0 217 10 220 5 2 10 10
10 17 0 9 25 15 88 20 48 3 94 8 102 10 19 5 55 0 165 -20z m4395 15 c0 -5 -7
-10 -16 -10 -8 0 -12 5 -9 10 3 6 10 10 16 10 5 0 9 -4 9 -10z m2194 -43 c7
-6 4 -7 -7 -3 -10 3 -23 6 -28 6 -14 0 -11 28 4 33 6 2 14 -3 16 -12 2 -9 8
-20 15 -24z m-81 -14 c-7 -2 -19 -2 -25 0 -7 3 -2 5 12 5 14 0 19 -2 13 -5z
m1992 -33 c8 -7 15 -23 15 -35 0 -19 -8 -24 -62 -35 -94 -19 -110 -19 -150 -3
-58 24 -57 58 3 82 32 14 175 6 194 -9z m-10991 -82 c8 -118 7 -208 -4 -233
-7 -18 -8 -18 -15 7 -4 15 -4 32 0 38 4 6 3 45 -1 88 -4 48 -10 70 -14 58 -6
-18 -7 -18 -13 5 -12 45 -8 89 9 89 8 0 12 5 9 10 -7 11 2 30 14 30 4 0 11
-41 15 -92z m23 0 c-2 -18 -4 -4 -4 32 0 36 2 50 4 33 2 -18 2 -48 0 -65z
m11999 13 c74 -9 88 -16 166 -93 49 -48 49 -69 0 -91 -21 -9 -42 -17 -46 -17
-3 0 -31 -24 -61 -52 -63 -61 -109 -98 -123 -98 -5 0 -15 -7 -22 -15 -17 -20
-26 -19 -49 6 l-19 21 -7 -21 c-8 -26 -35 -28 -35 -2 0 22 -15 36 -61 55 -29
12 -40 12 -72 1 -45 -15 -75 -48 -50 -53 9 -2 26 -16 38 -30 29 -33 16 -57
-27 -48 -15 3 -30 1 -33 -3 -3 -5 -27 -3 -53 4 -47 12 -49 11 -98 -21 -60 -40
-148 -59 -170 -37 -7 8 -14 23 -14 34 0 10 -7 19 -15 19 -8 0 -15 -8 -15 -18
0 -21 -63 -57 -85 -48 -9 3 -26 1 -37 -5 -25 -14 -138 -20 -138 -8 0 5 -7 9
-16 9 -26 0 -10 23 29 45 35 19 37 23 37 71 0 27 6 56 12 62 10 10 10 15 -1
21 -27 17 -3 39 56 51 32 6 66 16 75 21 13 7 35 0 81 -25 l64 -34 26 53 c37
75 124 165 194 200 51 25 76 30 208 41 195 15 179 14 261 5z m-8634 -41 c65
-16 121 -30 124 -30 2 0 4 -4 4 -10 0 -5 -17 -12 -37 -16 -62 -11 -71 -20 -37
-36 16 -9 41 -18 57 -22 57 -14 23 -22 -93 -23 -115 -1 -120 0 -125 20 -26
117 -30 147 -19 147 3 0 60 -13 126 -30z m10498 -40 c0 -5 -4 -10 -9 -10 -6 0
-13 5 -16 10 -3 6 1 10 9 10 9 0 16 -4 16 -10z m-13843 -107 c-2 -16 -4 -5 -4
22 0 28 2 40 4 28 2 -13 2 -35 0 -50z m-3147 21 c0 -2 -7 -4 -15 -4 -8 0 -15
4 -15 10 0 5 7 7 15 4 8 -4 15 -8 15 -10z m120 -4 c0 -12 -79 -13 -98 -1 -8 5
9 9 42 10 33 1 56 -3 56 -9z m12463 0 c7 0 1 -6 -13 -14 -14 -7 -29 -9 -34 -5
-13 11 4 31 21 25 8 -3 20 -6 26 -6z m-12333 -25 c0 -16 -17 -19 -44 -9 -26
10 -18 24 14 24 20 0 30 -5 30 -15z m12270 -104 c-6 -12 -15 -19 -21 -16 -13
8 -11 29 3 43 18 18 32 -2 18 -27z m-9365 -65 c4 -53 3 -56 -15 -46 -11 6 -24
19 -30 30 -9 16 -8 20 5 20 9 0 15 6 12 13 -5 13 12 52 20 44 2 -3 6 -30 8
-61z m-365 -1 c19 -4 45 -13 57 -21 12 -8 29 -14 37 -14 7 0 27 -7 42 -15 16
-8 39 -15 52 -15 12 0 22 -5 22 -11 0 -5 -5 -7 -12 -3 -6 4 -8 3 -5 -2 3 -5
20 -11 39 -12 18 -1 52 -10 75 -18 23 -9 54 -14 68 -12 30 6 39 -4 31 -38 -7
-26 -36 -34 -36 -9 0 20 -87 60 -123 56 -15 -1 -46 7 -70 18 -23 11 -63 25
-89 32 -27 8 -48 17 -48 21 0 4 -11 8 -24 8 -13 0 -29 6 -36 14 -6 8 -18 12
-26 9 -16 -6 -17 -2 -8 22 4 9 10 12 13 7 3 -5 22 -13 41 -17z m12419 -5 c12
0 21 -4 21 -10 0 -5 -15 -10 -34 -10 -19 0 -38 -6 -42 -12 -6 -9 -10 -5 -14
12 -7 29 7 42 31 29 10 -5 27 -9 38 -9z m-1264 -87 c11 -2 31 -12 44 -22 l23
-18 -36 -17 c-46 -22 -134 -37 -211 -35 -33 0 -101 -3 -152 -7 -118 -9 -143
-3 -143 35 0 37 22 55 60 47 17 -3 76 -1 133 5 56 5 128 12 161 14 32 2 61 7
64 10 3 3 13 3 21 -1 9 -4 25 -9 36 -11z m-14177 -73 c1 41 6 70 10 63 4 -6
36 -14 71 -18 69 -6 81 -10 81 -27 0 -6 -12 -8 -30 -4 -24 4 -30 2 -30 -12 0
-15 -2 -15 -10 -2 -6 10 -10 11 -10 3 0 -8 -13 -13 -29 -13 -23 0 -31 5 -34
23 -2 12 -5 2 -6 -23 -1 -25 -6 -63 -10 -85 l-9 -40 -2 35 -3 35 -7 -30 c-6
-24 -7 -21 -4 14 2 24 5 69 6 100 2 54 2 54 8 -19 l6 -75 2 75z m4610 18 c2
-11 -3 -18 -12 -18 -9 0 -16 4 -16 10 0 5 -7 7 -15 4 -15 -6 -21 7 -8 20 13
13 48 1 51 -16z m-4318 -9 c36 -5 97 -15 137 -21 77 -11 84 -18 75 -76 -2 -18
-10 -32 -18 -32 -20 0 -27 19 -14 35 10 12 10 15 -1 16 -10 0 -11 2 -1 6 6 2
10 9 6 14 -7 12 -54 12 -54 -1 0 -5 -16 -10 -36 -10 -31 0 -35 2 -24 15 11 13
4 15 -50 15 -53 0 -63 3 -67 20 -6 23 -43 28 -43 6 0 -8 -4 -18 -10 -21 -6 -4
-10 7 -10 25 0 26 3 30 23 25 12 -3 51 -10 87 -16z m4380 -5 c0 -17 -26 -19
-36 -3 -7 12 15 31 28 23 4 -3 8 -12 8 -20z m60 -46 c-1 -26 -3 -30 -10 -16
-6 9 -7 23 -4 32 9 25 14 19 14 -16z m60 5 c0 -20 -3 -24 -11 -16 -7 7 -9 19
-6 27 10 24 17 19 17 -11z m178 -16 c5 -46 -3 -57 -35 -47 -15 5 -40 12 -55
15 -23 4 -28 11 -28 36 l0 30 58 -3 c54 -3 57 -4 60 -31z m-4349 4 c42 -11
103 -25 136 -31 33 -7 71 -19 84 -27 12 -8 31 -13 40 -10 11 2 23 -4 30 -16
12 -18 11 -19 -6 -12 -10 4 -48 9 -85 9 -72 2 -108 16 -40 16 23 0 42 5 42 10
0 13 -13 13 -136 -2 -100 -11 -154 -7 -154 13 0 5 10 13 21 18 20 7 20 8 -10
20 -34 14 -41 31 -14 31 9 0 51 -9 92 -19z m5325 -7 c24 -9 19 -21 -11 -27
-16 -3 -52 -11 -80 -17 -66 -14 -205 -9 -210 7 -4 12 92 31 182 36 28 2 62 4
77 5 14 1 33 -1 42 -4z m-5628 -25 c-21 -17 -29 -19 -41 -9 -25 21 -17 30 26
30 l42 0 -27 -21z m5798 10 l31 -1 -37 -10 c-28 -7 -42 -6 -65 7 l-28 16 34
-5 c18 -4 48 -6 65 -7z m-5906 -11 c-6 -29 -45 -31 -45 -3 0 9 10 15 24 15 13
0 22 -5 21 -12z m-191 -30 c-3 -8 -6 -5 -6 6 -1 11 2 17 5 13 3 -3 4 -12 1
-19z m13741 -3 c6 -2 12 -12 12 -20 0 -13 -9 -15 -42 -13 -35 2 -44 7 -46 25
-3 19 1 21 30 17 18 -3 39 -7 46 -9z m369 -21 c-3 -3 -12 -4 -19 -1 -8 3 -5 6
6 6 11 1 17 -2 13 -5z"/>
<path d="M9863 6675 c4 -33 12 -39 43 -31 l27 7 -23 25 c-31 32 -52 31 -47 -1z"/>
<path d="M10150 6475 c0 -18 9 -28 38 -41 20 -10 39 -19 42 -20 3 -1 6 7 6 19
0 25 -18 41 -58 56 -26 9 -28 8 -28 -14z m25 -4 c3 -5 1 -12 -5 -16 -5 -3 -10
1 -10 9 0 18 6 21 15 7z"/>
<path d="M10240 6430 c0 -5 4 -10 10 -10 5 0 7 -6 4 -13 -6 -17 69 -57 108
-57 36 0 31 9 -18 35 -21 11 -46 28 -56 38 -20 19 -48 23 -48 7z"/>
<path d="M10375 6324 c11 -8 28 -21 38 -30 10 -8 24 -13 30 -11 7 2 1 10 -13
17 -13 7 -31 19 -38 27 -7 7 -19 13 -25 13 -7 0 -3 -7 8 -16z"/>
<path d="M10412 6328 c3 -7 15 -14 29 -16 23 -2 23 -2 5 13 -24 18 -39 20 -34
3z"/>
<path d="M10460 6291 c0 -37 29 -52 60 -30 11 8 8 9 -15 5 -20 -5 -25 -3 -16
3 7 5 10 14 7 20 -9 13 -36 15 -36 2z"/>
<path d="M10577 6221 c-4 -15 4 -28 26 -45 17 -14 34 -23 36 -20 3 3 -1 9 -9
14 -8 6 -10 10 -5 10 6 0 2 5 -7 11 -25 14 -23 32 2 19 16 -9 20 -8 20 5 0 8
-6 15 -14 15 -8 0 -21 3 -29 6 -9 3 -16 -3 -20 -15z"/>
<path d="M10738 6103 c7 -3 16 -2 19 1 4 3 -2 6 -13 5 -11 0 -14 -3 -6 -6z"/>
<path d="M10760 6070 c0 -5 5 -10 10 -10 6 0 10 5 10 10 0 6 -4 10 -10 10 -5
0 -10 -4 -10 -10z"/>
<path d="M6232 6358 c-19 -19 -14 -38 13 -48 35 -13 57 -3 45 21 -15 27 -44
41 -58 27z"/>
<path d="M6460 6149 c0 -14 9 -21 30 -26 17 -3 33 -10 36 -14 3 -5 13 -9 22
-9 9 0 30 -7 46 -15 35 -19 70 -19 85 -2 8 11 4 13 -22 10 -26 -4 -29 -2 -17
7 12 9 7 10 -23 5 -25 -4 -37 -3 -33 4 7 10 -30 50 -48 52 -63 9 -76 7 -76
-12z m47 -5 c-3 -3 -12 -4 -19 -1 -8 3 -5 6 6 6 11 1 17 -2 13 -5z"/>
<path d="M6703 6079 c-39 -11 -42 -22 -8 -37 14 -6 25 -8 25 -3 0 5 -5 11 -12
13 -7 3 -5 7 6 11 13 5 19 1 23 -13 3 -11 12 -20 20 -20 12 0 13 3 4 14 -8 10
-9 16 -1 21 13 8 3 25 -13 24 -7 0 -27 -5 -44 -10z"/>
<path d="M6783 6046 c-3 -37 0 -39 112 -73 33 -9 63 -22 67 -28 5 -6 11 -6 20
3 14 14 48 16 48 3 0 -4 12 -6 26 -3 l27 5 -24 18 c-13 10 -30 19 -38 19 -28
0 -90 23 -85 31 11 19 -27 8 -47 -13 -21 -23 -21 -23 -10 -1 15 30 15 31 -15
25 -20 -3 -23 -7 -12 -14 9 -6 3 -7 -17 -3 -35 8 -45 16 -28 22 10 3 10 9 0
24 -17 27 -22 24 -24 -15z"/>
<path d="M7120 5939 c0 -5 5 -7 10 -4 6 3 10 8 10 11 0 2 -4 4 -10 4 -5 0 -10
-5 -10 -11z"/>
<path d="M7005 5930 c23 -10 81 -13 72 -4 -3 4 -26 8 -49 10 -31 2 -37 0 -23
-6z"/>
<path d="M8525 5580 c-4 -6 6 -10 24 -10 16 0 33 5 36 10 4 6 -6 10 -24 10
-16 0 -33 -4 -36 -10z"/>
<path d="M8465 5570 c-3 -5 -1 -10 4 -10 6 0 11 5 11 10 0 6 -2 10 -4 10 -3 0
-8 -4 -11 -10z"/>
<path d="M8242 4609 c2 -7 10 -15 17 -17 8 -3 12 1 9 9 -2 7 -10 15 -17 17 -8
3 -12 -1 -9 -9z"/>
<path d="M8400 4485 c0 -16 -6 -25 -15 -25 -8 0 -15 -6 -15 -14 0 -9 7 -12 19
-9 13 3 20 16 23 39 2 19 0 34 -4 34 -4 0 -8 -11 -8 -25z"/>
<path d="M13390 5291 c0 -5 5 -13 10 -16 6 -3 10 -2 10 4 0 5 -4 13 -10 16 -5
3 -10 2 -10 -4z"/>
<path d="M12997 4038 c-7 -23 5 -48 24 -48 22 0 24 18 5 43 -16 20 -23 21 -29
5z"/>
<path d="M12503 3538 c-32 -36 -73 -101 -73 -116 0 -11 10 -13 44 -8 41 6 44
5 54 -21 17 -44 26 -226 13 -251 -7 -12 -16 -22 -22 -22 -5 0 -21 -7 -35 -17
-29 -18 -17 -33 27 -33 29 0 49 -17 49 -41 0 -18 26 -34 34 -21 5 9 -12 268
-19 292 -2 8 -9 56 -15 105 -20 168 -21 172 -57 133z"/>
<path d="M6165 4860 c4 -6 11 -8 16 -5 14 9 11 15 -7 15 -8 0 -12 -5 -9 -10z"/>
<path d="M6316 4825 c-3 -8 -1 -15 4 -15 6 0 10 7 10 15 0 8 -2 15 -4 15 -2 0
-6 -7 -10 -15z"/>
<path d="M15841 2804 c0 -11 3 -14 6 -6 3 7 2 16 -1 19 -3 4 -6 -2 -5 -13z"/>
<path d="M10950 2175 c0 -9 6 -12 15 -9 8 4 15 7 15 9 0 2 -7 5 -15 9 -9 3
-15 0 -15 -9z"/>
<path d="M11003 2183 c9 -2 23 -2 30 0 6 3 -1 5 -18 5 -16 0 -22 -2 -12 -5z"/>
<path d="M13780 2166 c0 -8 5 -18 10 -21 6 -3 10 3 10 14 0 12 -4 21 -10 21
-5 0 -10 -6 -10 -14z"/>
<path d="M12145 1790 c-3 -5 -1 -10 4 -10 6 0 11 5 11 10 0 6 -2 10 -4 10 -3
0 -8 -4 -11 -10z"/>
<path d="M12080 1740 c0 -5 5 -10 10 -10 6 0 10 5 10 10 0 6 -4 10 -10 10 -5
0 -10 -4 -10 -10z"/>
<path d="M3205 1519 c-4 -6 0 -9 10 -7 10 2 20 -3 22 -9 3 -7 0 -13 -6 -13 -6
0 -11 -5 -11 -10 0 -7 6 -7 19 0 11 5 35 10 54 10 40 0 51 8 36 27 -14 16
-115 18 -124 2z"/>
<path d="M3394 1100 c0 -69 1 -97 3 -62 2 34 2 90 0 125 -2 34 -3 6 -3 -63z"/>
<path d="M3403 860 c0 -25 2 -35 4 -22 2 12 2 32 0 45 -2 12 -4 2 -4 -23z"/>
<path d="M4640 846 c0 -13 41 -26 81 -26 33 0 21 19 -18 29 -50 14 -63 14 -63
-3z"/>
<path d="M1100 5735 c0 -8 5 -15 10 -15 6 0 10 7 10 15 0 8 -4 15 -10 15 -5 0
-10 -7 -10 -15z"/>
<path d="M925 5710 c-3 -5 -1 -10 4 -10 6 0 11 5 11 10 0 6 -2 10 -4 10 -3 0
-8 -4 -11 -10z"/>
<path d="M870 5630 c0 -5 7 -10 16 -10 8 0 12 5 9 10 -3 6 -10 10 -16 10 -5 0
-9 -4 -9 -10z"/>
<path d="M150 3893 c0 -4 5 -15 10 -23 8 -13 10 -13 10 2 0 9 -4 20 -10 23 -5
3 -10 3 -10 -2z"/>
<path d="M21 3757 c-6 -6 -11 -18 -11 -26 0 -11 3 -12 8 -5 4 6 15 10 25 8 20
-3 23 21 3 29 -7 3 -19 0 -25 -6z"/>
<path d="M53 3300 c0 -47 2 -66 4 -42 2 23 2 61 0 85 -2 23 -4 4 -4 -43z"/>
<path d="M46 3112 c3 -41 2 -51 -5 -37 -8 17 -10 17 -10 3 -1 -21 18 -34 23
-16 13 40 13 97 1 102 -10 4 -12 -8 -9 -52z"/>
<path d="M12411 1740 c-12 -7 -12 -11 -2 -23 9 -12 9 -16 -1 -21 -10 -5 -10
-7 0 -12 6 -3 12 -19 12 -35 0 -16 5 -29 10 -29 6 0 10 -26 11 -57 1 -44 3
-52 9 -33 11 35 0 192 -14 207 -7 8 -16 9 -25 3z"/>
<path d="M12404 1509 c-3 -6 -1 -16 5 -22 8 -8 11 -5 11 11 0 24 -5 28 -16 11z"/>
<path d="M31 1254 c0 -11 3 -14 6 -6 3 7 2 16 -1 19 -3 4 -6 -2 -5 -13z"/>
<path d="M500 1210 c0 -5 5 -10 10 -10 6 0 10 5 10 10 0 6 -4 10 -10 10 -5 0
-10 -4 -10 -10z"/>
<path d="M497 1143 c-4 -3 -7 -11 -7 -17 0 -6 5 -5 12 2 6 6 9 14 7 17 -3 3
-9 2 -12 -2z"/>
<path d="M481 1084 c0 -11 3 -14 6 -6 3 7 2 16 -1 19 -3 4 -6 -2 -5 -13z"/>
<path d="M10568 1053 c6 -2 18 -2 25 0 6 3 1 5 -13 5 -14 0 -19 -2 -12 -5z"/>
<path d="M12260 950 c-12 -8 -11 -10 8 -10 12 0 22 5 22 10 0 13 -11 13 -30 0z"/>
<path d="M10311 914 c0 -11 3 -14 6 -6 3 7 2 16 -1 19 -3 4 -6 -2 -5 -13z"/>
<path d="M10730 886 c0 -7 7 -19 15 -26 12 -10 18 -10 30 0 25 21 18 40 -15
40 -19 0 -30 -5 -30 -14z"/>
<path d="M9440 404 c0 -8 5 -12 10 -9 6 3 10 10 10 16 0 5 -4 9 -10 9 -5 0
-10 -7 -10 -16z"/>
<path d="M10580 202 c0 -12 4 -22 9 -22 10 0 9 26 -2 36 -4 4 -7 -2 -7 -14z"/>
<path d="M10320 190 c0 -5 18 -10 40 -10 22 0 40 5 40 10 0 6 -18 10 -40 10
-22 0 -40 -4 -40 -10z"/>
</g>
</svg>
